<svg width="145" height="118" viewBox="0 0 145 118" fill="none" xmlns="http://www.w3.org/2000/svg">
<path d="M53.4256 57.2515C53.4256 56.3263 53.58 55.4747 53.8868 54.6968C54.1936 53.9207 54.6284 53.2523 55.1892 52.6953C55.7501 52.1382 56.4202 51.7021 57.1994 51.3886C57.9787 51.0751 58.8445 50.9185 59.7988 50.9185C60.6025 50.9185 61.3817 51.0279 62.1365 51.247C62.8913 51.4661 63.6046 51.8154 64.2803 52.2931L63.6855 54.5344L63.5369 54.5042C63.407 54.017 63.2432 53.5601 63.0456 53.1371C62.8461 52.7142 62.6033 52.3478 62.3153 52.0401C62.0273 51.7323 61.6904 51.4906 61.3026 51.315C60.9149 51.1413 60.4689 51.0544 59.9625 51.0544C59.1588 51.0544 58.4662 51.2338 57.8846 51.5925C57.303 51.9513 56.8268 52.4234 56.456 53.0125C56.0833 53.5997 55.8104 54.2795 55.6372 55.0518C55.4641 55.8241 55.3775 56.6171 55.3775 57.4347C55.3775 58.2523 55.4772 58.9661 55.6749 59.6987C55.8725 60.4314 56.1661 61.0828 56.5538 61.6549C56.9416 62.2271 57.4197 62.6859 57.99 63.0295C58.5603 63.3732 59.2228 63.545 59.9776 63.545C60.514 63.545 60.9977 63.4412 61.4288 63.2316C61.8598 63.022 62.2343 62.7406 62.5525 62.3875C62.8705 62.0345 63.134 61.6228 63.3411 61.1546C63.55 60.6863 63.6987 60.1897 63.7872 59.661L63.9359 59.6307L64.5909 62.0061C63.8757 62.5839 63.1246 63.0069 62.3341 63.275C61.5455 63.5431 60.6834 63.6791 59.7498 63.6791C58.8671 63.6791 58.0427 63.5281 57.2785 63.2241C56.5143 62.9201 55.8443 62.4895 55.2683 61.9325C54.6924 61.3755 54.2406 60.6995 53.9132 59.9083C53.5856 59.1171 53.4219 58.2334 53.4219 57.2573L53.4256 57.2515Z" fill="black"/>
<path d="M70.6689 63.6749C69.8446 63.6749 69.1255 63.5314 68.51 63.2425C67.8946 62.9536 67.3751 62.5703 66.9535 62.0926C66.5318 61.6149 66.2138 61.071 66.0011 60.4649C65.7884 59.8569 65.6792 59.2357 65.6736 58.5975C65.6679 57.9612 65.7677 57.338 65.971 56.73C66.1743 56.122 66.4867 55.5801 66.9083 55.1024C67.3299 54.6246 67.8569 54.2413 68.4875 53.9524C69.118 53.6635 69.8596 53.52 70.7141 53.52C71.29 53.52 71.8227 53.5956 72.314 53.7447C72.8052 53.8939 73.2494 54.1035 73.6466 54.3716C74.0437 54.6397 74.3863 54.9608 74.6743 55.3346C74.9622 55.7085 75.1957 56.1182 75.3744 56.5676C75.2559 56.5884 75.0714 56.6205 74.823 56.6639C74.5745 56.7092 74.2846 56.7602 73.9515 56.8206C73.6184 56.8811 73.2494 56.9453 72.8429 57.0152C72.4363 57.085 72.0147 57.1605 71.578 57.2398C72.233 57.2493 72.7958 57.3474 73.2683 57.5306C73.7388 57.7157 74.1266 57.9498 74.4296 58.233C74.7326 58.5163 74.9509 58.841 75.0846 59.2036C75.2182 59.568 75.2728 59.9362 75.2483 60.3082C75.2238 60.6821 75.1241 61.0503 74.9509 61.4128C74.7778 61.7773 74.5312 62.0982 74.2131 62.3758C73.767 62.7742 73.2494 63.0914 72.6641 63.3237C72.0787 63.5578 71.4124 63.6749 70.6689 63.6749ZM67.6611 57.9385C67.6217 58.5465 67.6405 59.1753 67.7214 59.8286C67.8005 60.48 67.9604 61.0786 68.1976 61.6205C68.4367 62.1644 68.7585 62.6118 69.1651 62.9649C69.5716 63.3181 70.0892 63.5012 70.7141 63.5106C71.4294 63.5012 72.0674 63.3841 72.6283 63.1594C73.1892 62.9348 73.6823 62.6345 74.1096 62.255C74.5952 61.8169 74.9039 61.3033 75.0319 60.7161C75.1599 60.1288 75.0959 59.5718 74.838 59.0431C74.6799 58.724 74.4804 58.4596 74.2432 58.2519C74.0042 58.0424 73.7388 57.8762 73.4471 57.7516C73.1534 57.6269 72.8391 57.5401 72.5022 57.491C72.1653 57.4419 71.8227 57.4154 71.4745 57.4154C71.1263 57.4154 70.763 57.4362 70.4092 57.4758C70.0572 57.5155 69.7146 57.5627 69.3815 57.6175C69.0484 57.6722 68.7359 57.7289 68.4442 57.7893C68.1505 57.8497 67.8908 57.8988 67.6631 57.9385H67.6611ZM67.6611 57.7742C68.0094 57.7138 68.3783 57.6496 68.7698 57.5797C69.1613 57.5098 69.566 57.4362 69.9838 57.355C70.6294 57.2455 71.2675 57.1341 71.898 57.0189C72.5285 56.9037 73.1008 56.8018 73.6184 56.713C73.5393 56.324 73.4263 55.9483 73.2833 55.5857C73.1403 55.2232 72.9502 54.8984 72.7168 54.6152C72.4834 54.332 72.2011 54.1054 71.8679 53.9354C71.5347 53.7655 71.1451 53.6824 70.6991 53.6824C70.1438 53.6824 69.6789 53.8089 69.3062 54.0638C68.9335 54.3169 68.6305 54.6435 68.3971 55.042C68.1637 55.4404 67.9905 55.8803 67.8757 56.3637C67.7609 56.8471 67.6894 57.3173 67.6593 57.7761L67.6611 57.7742Z" fill="black"/>
<path d="M76.4473 63.5108C76.9329 63.5108 77.2491 63.3843 77.3921 63.1294C77.5352 62.8764 77.6123 62.4798 77.6236 61.9417V55.6369C77.6236 55.3292 77.6217 55.0534 77.6161 54.8156C77.6105 54.5757 77.5803 54.3756 77.5276 54.2113C77.4731 54.047 77.3808 53.9205 77.2529 53.8299C77.123 53.7412 76.9347 53.6864 76.6863 53.6656V53.5164C76.8952 53.4976 77.1249 53.4673 77.379 53.4277C77.6312 53.388 77.8853 53.3389 78.1375 53.2785C78.3897 53.2181 78.6419 53.152 78.8904 53.0765C79.1388 53.0009 79.3609 52.9197 79.5604 52.8291V56.9662C79.6206 56.479 79.7524 56.0146 79.9557 55.5765C80.159 55.1384 80.4413 54.7608 80.8046 54.4417C81.1659 54.1225 81.6083 53.879 82.1295 53.709C82.6512 53.5391 83.263 53.4749 83.9687 53.5145L83.9385 55.4557C83.7107 55.4065 83.4811 55.3688 83.2533 55.3442C83.0255 55.3197 82.8016 55.3065 82.5834 55.3065C82.1466 55.3065 81.7438 55.3612 81.3767 55.4708C81.0097 55.5802 80.6916 55.7445 80.4244 55.9636C80.1571 56.1826 79.9444 56.4621 79.7919 56.8001C79.6376 57.1381 79.5604 57.5365 79.5604 57.9953V62.0286C79.5698 62.5365 79.6527 62.9104 79.807 63.1483C79.9613 63.3881 80.27 63.507 80.7368 63.507V63.6562C80.2399 63.6354 79.839 63.6185 79.5303 63.6034C79.2216 63.5883 78.9355 63.5807 78.6664 63.5807C78.3784 63.5807 78.081 63.5883 77.7723 63.6034C77.4637 63.6185 77.0533 63.6354 76.5357 63.6562H76.4473V63.507V63.5108Z" fill="black"/>
<path d="M83.1177 60.7176C83.1177 60.2097 83.2287 59.7811 83.4526 59.4336C83.677 59.0843 83.9647 58.7973 84.3167 58.567C84.6687 58.3384 85.064 58.1553 85.5003 58.0212C85.9372 57.8872 86.3684 57.7795 86.7956 57.7002H86.8104C86.353 57.6115 85.9822 57.4454 85.6946 57.2074C85.4063 56.9676 85.2013 56.6919 85.0771 56.3785C84.9529 56.065 84.9136 55.7384 84.9586 55.4004C85.0036 55.0624 85.1278 54.7527 85.3312 54.4732C85.5345 54.1938 85.8205 53.9634 86.1878 53.7784C86.5547 53.5952 86.995 53.5027 87.511 53.5027C88.1057 53.5027 88.6685 53.5575 89.2028 53.667C89.7376 53.7765 90.2098 53.9559 90.6199 54.2051C91.0306 54.4544 91.3695 54.7772 91.6367 55.1757C91.9038 55.5741 92.0713 56.0612 92.1408 56.6391C91.8269 56.7486 91.5125 56.8411 91.2038 56.9147C90.8934 56.9903 90.5863 57.0563 90.2816 57.1168C90.2514 56.6183 90.1853 56.1614 90.08 55.7422C89.9746 55.323 89.8145 54.9623 89.5964 54.6583C89.3782 54.3543 89.0974 54.1164 88.7551 53.9408C88.4122 53.7671 87.9889 53.6746 87.4826 53.6651C86.8879 53.6746 86.3986 53.8067 86.0164 54.0616C85.6342 54.3146 85.3727 54.6319 85.2355 55.0095C85.1352 55.2682 85.0942 55.5307 85.109 55.7931C85.1244 56.0575 85.1956 56.303 85.3255 56.5333C85.4536 56.7618 85.6359 56.9638 85.8694 57.1375C86.103 57.3112 86.3889 57.4396 86.7261 57.519C87.2809 57.6587 87.936 57.7135 88.6907 57.6832C89.1971 57.6625 89.7507 57.5983 90.3511 57.4888C90.9515 57.3792 91.5649 57.2206 92.1898 57.011C92.7656 56.8222 93.3307 56.5919 93.8878 56.3237C94.4431 56.0556 94.9603 55.7403 95.4365 55.3834C95.9127 55.0246 96.3405 54.6092 96.7164 54.1352C97.0929 53.6632 97.396 53.127 97.6255 52.5303V57.1168C97.7144 56.6485 97.8442 56.1972 98.0134 55.7648C98.1832 55.3324 98.3973 54.951 98.6611 54.6224C98.9248 54.2939 99.2369 54.0276 99.5981 53.8237C99.9598 53.6198 100.376 53.5122 100.843 53.5027C101.518 53.4725 102.134 53.5518 102.689 53.7425C103.244 53.9314 103.728 54.2051 104.14 54.5639C104.552 54.9227 104.889 55.3626 105.153 55.8856C105.416 56.4087 105.597 56.9884 105.697 57.6266C105.757 57.1092 105.866 56.6051 106.024 56.1179C106.182 55.6307 106.397 55.1946 106.664 54.8112C106.931 54.4279 107.261 54.1202 107.647 53.886C108.034 53.6519 108.48 53.5254 108.987 53.5046C109.751 53.4744 110.436 53.5763 111.042 53.8105C111.648 54.0446 112.162 54.3883 112.584 54.8415C113.005 55.2946 113.331 55.8441 113.559 56.4918C113.786 57.1394 113.911 57.857 113.932 58.6424V61.9431C113.941 62.4718 114.018 62.8627 114.163 63.1157C114.306 63.3706 114.622 63.4971 115.108 63.4971V63.6463C114.759 63.6274 114.415 63.6123 114.072 63.601C113.73 63.5915 113.401 63.5859 113.082 63.5859C112.764 63.5859 112.469 63.5878 112.196 63.5934C111.923 63.5991 111.688 63.6066 111.488 63.616C111.249 63.6255 111.036 63.6368 110.848 63.6463V63.4971C111.115 63.4971 111.326 63.4669 111.481 63.4084C111.635 63.3479 111.752 63.2573 111.831 63.1327C111.91 63.008 111.962 62.8456 111.987 62.6474C112.011 62.4491 112.025 62.215 112.025 61.945V58.8086C112.025 58.1421 111.98 57.4944 111.891 56.8675C111.802 56.2406 111.642 55.6855 111.415 55.2021C111.187 54.7187 110.876 54.3392 110.483 54.0598C110.092 53.7803 109.587 53.6462 108.971 53.6556C108.386 53.6764 107.892 53.8558 107.491 54.1938C107.088 54.5318 106.76 54.9528 106.508 55.4551C106.254 55.9574 106.071 56.4955 105.957 57.0677C105.841 57.6398 105.785 58.1647 105.785 58.6444V61.945C105.795 62.4737 105.872 62.8646 106.016 63.1176C106.16 63.3725 106.476 63.499 106.961 63.499V63.6482C106.613 63.6293 106.269 63.6142 105.926 63.6028C105.583 63.5934 105.254 63.5878 104.936 63.5878C104.618 63.5878 104.323 63.5896 104.05 63.5953C103.777 63.601 103.541 63.6085 103.342 63.618C103.103 63.6274 102.89 63.6387 102.702 63.6482V63.499C102.97 63.499 103.18 63.4688 103.335 63.4103C103.489 63.3498 103.606 63.2592 103.684 63.1346C103.764 63.0099 103.817 62.8476 103.841 62.6493C103.866 62.451 103.879 62.2169 103.879 61.9469V58.8105C103.879 58.144 103.833 57.4963 103.745 56.8694C103.656 56.2425 103.496 55.6874 103.269 55.204C103.041 54.7206 102.73 54.3411 102.339 54.0616C101.947 53.7822 101.443 53.6481 100.827 53.6575C100.291 53.6783 99.8242 53.8369 99.4272 54.1352C99.0302 54.4336 98.7026 54.8169 98.4446 55.2852C98.1866 55.7535 97.9872 56.2765 97.8477 56.8543C97.7087 57.4321 97.6352 58.0099 97.6238 58.5877V62.0394C97.6335 62.2886 97.65 62.5058 97.6768 62.689C97.7013 62.874 97.752 63.0251 97.8254 63.144C97.9006 63.263 98.01 63.3536 98.153 63.4122C98.2959 63.4726 98.4879 63.5009 98.7271 63.5009V63.65C98.4292 63.6312 98.0886 63.616 97.707 63.6047C97.3248 63.5953 96.9141 63.5896 96.4778 63.5896C96.1804 63.5896 95.8694 63.5953 95.5459 63.6047C95.2241 63.6142 94.9022 63.6293 94.5861 63.65V63.5009C94.8345 63.5009 95.0304 63.4688 95.1734 63.4046C95.3163 63.3404 95.4257 63.246 95.5009 63.1214C95.5761 62.9967 95.6251 62.8381 95.6496 62.6436C95.674 62.4491 95.6871 62.2188 95.6871 61.9488V57.9608C95.6871 57.653 95.6854 57.3811 95.6797 57.147C95.674 56.9128 95.6456 56.7164 95.5892 56.5579C95.5345 56.3992 95.4462 56.2708 95.3277 56.1764C95.207 56.082 95.0338 56.0254 94.8043 56.0046C94.3959 56.2539 93.9726 56.4748 93.534 56.6692C93.0954 56.8638 92.6415 57.0356 92.1733 57.1847C92.1733 57.264 92.175 57.3434 92.1807 57.4246C92.1864 57.5039 92.1881 57.653 92.1881 57.872V60.695C92.1881 61.0538 92.1898 61.4031 92.1955 61.7411C92.2012 62.0791 92.2331 62.3793 92.2917 62.638C92.3521 62.8967 92.4495 63.1063 92.5891 63.2648C92.728 63.4235 92.9371 63.5047 93.2139 63.5047V63.6538C92.6984 63.6538 92.2576 63.6142 91.8924 63.5349C91.5273 63.4556 91.226 63.3234 90.9908 63.1383C90.7538 62.9552 90.5789 62.7059 90.4661 62.3906C90.3528 62.0772 90.2964 61.6806 90.2964 61.2029C90.0179 61.9903 89.581 62.5946 88.9863 63.0175C88.3899 63.4404 87.6369 63.6633 86.7221 63.6822C86.2368 63.6822 85.7737 63.6293 85.3369 63.5254C84.9 63.4216 84.5183 63.2516 84.1908 63.0175C83.8633 62.7834 83.6013 62.4775 83.4093 62.0979C83.2156 61.7203 83.1194 61.2615 83.1194 60.7233L83.1177 60.7176ZM85.0224 60.8517C85.0224 61.6089 85.1922 62.2018 85.5305 62.6285C85.8694 63.0571 86.4174 63.2705 87.1738 63.2705C87.601 63.2705 88.0077 63.2063 88.3916 63.076C88.7756 62.9476 89.1048 62.7324 89.3856 62.434C89.6659 62.1357 89.8863 61.7467 90.0498 61.269C90.2138 60.7913 90.2964 60.204 90.2964 59.5054V57.6682C89.9182 57.7286 89.5548 57.772 89.2068 57.8022C88.9373 57.8324 88.6742 57.8494 88.4144 57.8551C88.1547 57.8607 87.9063 57.8532 87.6671 57.8324C87.3191 57.9117 86.9859 58.0212 86.6657 58.161C86.3473 58.3007 86.0654 58.4895 85.8227 58.7293C85.5778 58.9691 85.3841 59.2599 85.2406 59.6036C85.0959 59.9472 85.0241 60.3627 85.0241 60.8517H85.0224Z" fill="black"/>
<path d="M116.174 63.5109C116.66 63.5109 116.976 63.3844 117.119 63.1295C117.262 62.8764 117.34 62.4799 117.351 61.9418V56.3243C117.351 56.0165 117.349 55.7408 117.343 55.5029C117.338 55.2631 117.31 55.063 117.255 54.8987C117.2 54.7344 117.108 54.6079 116.98 54.5172C116.85 54.4285 116.662 54.3738 116.414 54.353V54.2038C116.623 54.185 116.852 54.1547 117.106 54.1151C117.359 54.0754 117.613 54.0263 117.865 53.9659C118.117 53.9055 118.369 53.8394 118.618 53.7639C118.866 53.6883 119.088 53.6071 119.288 53.5165V62.0306C119.297 62.5384 119.38 62.9123 119.534 63.1503C119.689 63.39 119.998 63.509 120.466 63.509V63.6582C120.168 63.6374 119.815 63.6242 119.408 63.6129C119.002 63.6034 118.569 63.5978 118.113 63.5978C117.795 63.5978 117.473 63.6034 117.145 63.6129C116.818 63.6223 116.496 63.6374 116.178 63.6582V63.509L116.174 63.5109ZM117.172 51.7095C117.172 51.3809 117.272 51.1015 117.47 50.873C117.667 50.6445 117.927 50.5293 118.243 50.5293C118.58 50.5293 118.845 50.6464 119.039 50.8806C119.233 51.1147 119.329 51.3903 119.329 51.7095C119.329 52.0286 119.227 52.2872 119.024 52.5158C118.821 52.7442 118.559 52.8594 118.243 52.8594C117.927 52.8594 117.68 52.7574 117.477 52.5535C117.274 52.3496 117.172 52.0682 117.172 51.7095Z" fill="black"/>
<path d="M121.535 58.6111C121.535 57.8747 121.652 57.1949 121.885 56.5718C122.119 55.9487 122.452 55.4124 122.883 54.9592C123.314 54.5061 123.835 54.1529 124.447 53.898C125.059 53.6431 125.734 53.5166 126.48 53.5166C127.79 53.5166 128.987 53.8848 130.069 54.6212L129.503 56.6077H129.428C129.348 56.2092 129.226 55.8335 129.062 55.4804C128.898 55.1273 128.692 54.8157 128.445 54.5476C128.197 54.2795 127.91 54.0642 127.588 53.9056C127.267 53.747 126.905 53.6658 126.508 53.6658C125.923 53.6658 125.434 53.7999 125.042 54.0699C124.65 54.338 124.332 54.693 124.089 55.1311C123.847 55.5691 123.672 56.0695 123.568 56.6322C123.464 57.1949 123.412 57.7652 123.412 58.3429C123.412 58.9604 123.467 59.576 123.575 60.1877C123.685 60.7995 123.867 61.3509 124.127 61.8381C124.387 62.3252 124.726 62.7217 125.147 63.0257C125.569 63.3297 126.089 63.4808 126.704 63.4808C127.507 63.4204 128.178 63.1579 128.714 62.6896C129.25 62.2214 129.672 61.619 129.981 60.8826L130.129 60.9431C129.781 61.7889 129.295 62.4536 128.671 62.937C128.046 63.4204 127.282 63.6621 126.379 63.6621C125.674 63.6621 125.023 63.5337 124.428 63.2731C123.834 63.0144 123.321 62.6576 122.894 62.2044C122.467 61.7512 122.136 61.2187 121.897 60.6051C121.658 59.9933 121.539 59.3286 121.539 58.6111H121.535Z" fill="black"/>
<path d="M39.0682 44.7738L44.8202 43.0895C45.5204 42.8837 45.9213 42.1492 45.718 41.4467L44.0391 35.6763C43.7097 34.5434 42.1795 34.3753 41.613 35.4101L37.5399 42.8648C36.9752 43.8995 37.9389 45.1042 39.0682 44.7738Z" fill="black"/>
<path d="M46.65 41.1729C46.8551 41.8754 47.5873 42.2776 48.2875 42.0736L54.7416 40.1835C55.8709 39.8531 56.0384 38.318 55.007 37.7496L46.6669 33.1669C45.6355 32.6004 44.4346 33.5672 44.764 34.7001L46.6481 41.1748L46.65 41.1729Z" fill="#C1272D"/>
<path d="M32.1737 57.3934L34.6808 56.6589C35.3809 56.453 35.7819 55.7185 35.5786 55.0161L34.8464 52.501C34.517 51.3681 32.9868 51.2 32.4202 52.2348L30.6454 55.4825C30.0807 56.5173 31.0444 57.722 32.1737 57.3915V57.3934Z" fill="black"/>
<path d="M51.0731 73.5917L48.9349 66.2428C48.7297 65.5404 47.9975 65.1381 47.2974 65.3421L33.913 69.262C32.7837 69.5925 32.6162 71.1276 33.6476 71.696L43.1114 76.9C43.4181 77.068 43.7796 77.1076 44.1164 77.0095L50.1753 75.2345C50.8755 75.0287 51.2764 74.2942 51.0731 73.5917Z" fill="black"/>
<path d="M52.0856 77.0689C51.8805 76.3665 51.1483 75.9643 50.4481 76.1683L47.8544 76.9273C46.7251 77.2577 46.5576 78.7929 47.5891 79.3613L50.9394 81.2042C51.9708 81.7707 53.1716 80.8039 52.8422 79.6709L52.0856 77.0689Z" fill="#FF0000"/>
<path d="M58.4776 40.1019L35.8761 46.7202C35.5392 46.8184 35.2568 47.0468 35.0874 47.3546L34.8748 47.7455C34.7073 48.0533 34.6677 48.4158 34.7656 48.7538L36.5085 54.7452C36.6233 55.1379 36.9019 55.4363 37.2482 55.5873L59.1213 40.0793C58.9105 40.034 58.6884 40.0415 58.4776 40.1038V40.1019Z" fill="#FF0000"/>
<path d="M62.2475 47.2081L60.5046 41.2167C60.4067 40.8787 60.1789 40.5955 59.8721 40.4256L59.4825 40.2122C59.3677 40.1498 59.2454 40.1045 59.1212 40.0781L37.248 55.5861C37.5209 55.707 37.8372 55.7353 38.1459 55.6447L61.3497 48.8489C62.0498 48.6432 62.4508 47.9086 62.2475 47.2062V47.2081Z" fill="#FF0000"/>
<path d="M28.9798 59.3414C28.6429 59.4396 28.3605 59.6681 28.1911 59.9758L25.1627 65.5197C24.8126 66.1617 25.046 66.9661 25.6859 67.3173L26.2713 67.6383L48.0841 53.7466L28.9798 59.3414Z" fill="#FF0000"/>
<path d="M49.7214 54.648C49.5162 53.9456 48.7841 53.5434 48.0839 53.7474L26.271 67.6391L29.1715 69.2346C29.4783 69.4027 29.8397 69.4423 30.1766 69.3442L50.8601 63.2867C51.5603 63.0808 51.9612 62.3463 51.7579 61.6439L49.7214 54.648Z" fill="#C1272D"/>
<path d="M53.5027 73.0771L53.6119 73.0902C53.6853 73.585 53.8171 74.0419 54.0091 74.4592C54.2011 74.8765 54.4476 75.2372 54.7487 75.5393C55.0499 75.8414 55.4038 76.0774 55.8122 76.2474C56.2188 76.4173 56.6742 76.5023 57.1768 76.5023C57.6248 76.5023 58.0483 76.4532 58.4454 76.3588C58.8426 76.2625 59.1908 76.1133 59.4881 75.9113C59.7855 75.7092 60.0208 75.4543 60.194 75.1484C60.3672 74.8406 60.4537 74.4724 60.4537 74.04C60.4537 73.636 60.3464 73.2998 60.1319 73.028C59.9173 72.7579 59.635 72.5257 59.2887 72.333C58.9404 72.1405 58.5433 71.9724 58.0953 71.8308C57.6474 71.6892 57.1881 71.5476 56.7175 71.4041C56.247 71.2624 55.7878 71.1038 55.3398 70.9301C54.8918 70.7564 54.4946 70.5411 54.1464 70.2824C53.7982 70.0256 53.5178 69.716 53.3032 69.3534C53.0886 68.9909 52.9814 68.5434 52.9814 68.0128C52.9814 67.4444 53.1169 66.9648 53.386 66.5758C53.6552 66.1869 54.0072 65.8696 54.442 65.6261C54.8767 65.3825 55.368 65.2069 55.9158 65.0974C56.4634 64.9878 57.0225 64.9331 57.589 64.9331C58.3381 64.9331 59.0289 65.0105 59.6594 65.1672C60.29 65.324 60.9299 65.5618 61.5793 65.8829L60.8942 68.262L60.7568 68.2488C60.7379 67.7994 60.6438 67.3802 60.4763 66.9894C60.3069 66.6004 60.081 66.2643 59.7968 65.9848C59.5126 65.7054 59.1814 65.4845 58.803 65.324C58.4228 65.1634 58.0144 65.0822 57.5759 65.0822C57.173 65.0822 56.7891 65.1351 56.424 65.2409C56.0588 65.3466 55.7331 65.4996 55.4508 65.7016C55.1666 65.9036 54.9426 66.1548 54.7789 66.4588C54.6151 66.7628 54.5323 67.1045 54.5323 67.4897C54.5323 67.8749 54.6396 68.1808 54.8542 68.432C55.0688 68.685 55.3529 68.8946 55.7049 69.0645C56.0569 69.2345 56.4597 69.3836 56.9114 69.512C57.3631 69.6404 57.8262 69.7708 58.2967 69.9048C58.7673 70.0389 59.2284 70.1861 59.682 70.3523C60.1337 70.5166 60.5366 70.7262 60.8885 70.9792C61.2405 71.2322 61.5247 71.5438 61.7393 71.9138C61.9539 72.2858 62.0611 72.7409 62.0611 73.2828C62.0611 73.9154 61.9294 74.4479 61.664 74.8784C61.3986 75.3089 61.0429 75.6564 60.5949 75.9169C60.147 76.1794 59.6274 76.3644 59.0383 76.474C58.4492 76.5834 57.8337 76.6382 57.1938 76.6382C56.407 76.6382 55.6598 76.5457 54.952 76.3625C54.2444 76.1794 53.5554 75.881 52.8892 75.4675L53.5065 73.0733L53.5027 73.0771Z" fill="#FF0000"/>
<path d="M67.6404 76.6398C66.9364 76.6398 66.3003 76.5152 65.7337 76.2678C65.1672 76.0205 64.6853 75.6806 64.2863 75.2501C63.8891 74.8196 63.5824 74.3154 63.3678 73.7376C63.1532 73.1598 63.0459 72.5367 63.0459 71.8664C63.0459 71.1961 63.1551 70.6258 63.3753 70.0707C63.5955 69.5156 63.9061 69.0321 64.307 68.6186C64.7098 68.2051 65.1954 67.8822 65.7676 67.6481C66.3398 67.414 66.9759 67.2969 67.6799 67.2969C68.3838 67.2969 69.0332 67.4158 69.5998 67.6537C70.1663 67.8917 70.65 68.2202 71.0528 68.6375C71.4556 69.0548 71.7643 69.5457 71.9788 70.1103C72.1935 70.6749 72.3007 71.2867 72.3007 71.9476C72.3007 72.6085 72.1935 73.2391 71.9788 73.8113C71.7643 74.3853 71.4537 74.88 71.0472 75.2973C70.6406 75.7146 70.1494 76.0432 69.5734 76.281C68.9975 76.519 68.3538 76.638 67.6404 76.638V76.6398ZM64.8435 71.8796C64.8435 72.1742 64.8585 72.4914 64.8924 72.835C64.9243 73.1787 64.9808 73.5205 65.0637 73.8604C65.1465 74.2002 65.2556 74.5269 65.393 74.8441C65.5305 75.1613 65.7055 75.4408 65.9201 75.6825C66.1346 75.9261 66.3869 76.1206 66.6748 76.2678C66.9628 76.4152 67.3035 76.4888 67.6968 76.4888C68.2822 76.4888 68.7565 76.334 69.1236 76.0205C69.4887 75.7089 69.7748 75.3237 69.98 74.8649C70.1852 74.4061 70.3244 73.9094 70.3978 73.3732C70.4712 72.8369 70.507 72.3479 70.507 71.9079C70.507 71.6153 70.4901 71.2999 70.4581 70.9657C70.426 70.6315 70.3696 70.2992 70.2868 69.9687C70.204 69.6382 70.0948 69.3192 69.9574 69.0133C69.82 68.7055 69.6468 68.4354 69.436 68.2013C69.2252 67.9672 68.9749 67.7821 68.6812 67.6443C68.3895 67.5065 68.0507 67.4385 67.6668 67.4385C67.2828 67.4385 66.944 67.5065 66.6522 67.6443C66.3605 67.7821 66.1101 67.9672 65.905 68.2013C65.6999 68.4354 65.5286 68.7036 65.3911 69.0057C65.2537 69.3078 65.1446 69.625 65.0618 69.9555C64.979 70.286 64.9225 70.6182 64.8905 70.9525C64.8585 71.2867 64.8415 71.5964 64.8415 71.8815L64.8435 71.8796Z" fill="#FF0000"/>
<path d="M75.2649 76.5846C74.9355 76.5846 74.6061 76.5903 74.2767 76.5978C73.9473 76.6073 73.618 76.6205 73.2886 76.6394V76.5015C73.7365 76.5015 74.0264 76.3845 74.16 76.1503C74.2918 75.9162 74.3633 75.5518 74.3727 75.057V66.8583C74.3727 66.5732 74.3708 66.3221 74.3652 66.1011C74.3595 65.8802 74.3332 65.6952 74.2824 65.5441C74.2316 65.3931 74.1469 65.276 74.0283 65.1929C73.9097 65.1098 73.7365 65.0607 73.5069 65.0419V64.904C73.6989 64.8851 73.9116 64.8587 74.145 64.8209C74.3783 64.7832 74.6118 64.7379 74.8451 64.6831C75.0786 64.6283 75.3082 64.5661 75.5378 64.4981C75.7656 64.4301 75.9726 64.3527 76.1552 64.2715V75.1401C76.1646 75.6084 76.2399 75.9521 76.381 76.1711C76.5222 76.392 76.8083 76.5015 77.2374 76.5015V76.6394C76.9081 76.6205 76.5787 76.6073 76.2493 76.5978C75.9199 76.5884 75.5905 76.5846 75.2611 76.5846H75.2649Z" fill="#FF0000"/>
<path d="M79.7501 67.3272C80.2432 67.3177 80.6818 67.3045 81.0657 67.2856V71.84C81.0657 72.4178 81.0996 72.9881 81.1693 73.5527C81.237 74.1172 81.3706 74.6195 81.5662 75.0595C81.7622 75.4994 82.039 75.8544 82.3967 76.1263C82.7522 76.3963 83.2244 76.5228 83.8082 76.504C84.3106 76.4945 84.7492 76.3472 85.124 76.064C85.4982 75.7789 85.8087 75.4182 86.0553 74.9764C86.3019 74.5364 86.4905 74.0455 86.6181 73.5036C86.7462 72.9635 86.814 72.4254 86.8237 71.8948V68.8C86.814 68.3317 86.7405 67.988 86.6033 67.769C86.466 67.5481 86.1778 67.4386 85.7392 67.4386V67.3007C86.0496 67.3196 86.319 67.331 86.5486 67.3347C86.7764 67.3404 86.9832 67.3423 87.166 67.3423C87.4127 67.3423 87.6439 67.3404 87.8587 67.3347C88.0734 67.331 88.3218 67.3196 88.606 67.3007V74.6875C88.606 74.8612 88.6077 75.0538 88.6134 75.2653C88.6174 75.4768 88.647 75.6712 88.7017 75.8506C88.7564 76.03 88.8486 76.1811 88.9768 76.3038C89.1044 76.4284 89.2929 76.4888 89.5396 76.4888V76.6399C89.0634 76.6399 88.655 76.604 88.3121 76.5304C87.9697 76.4567 87.6872 76.3359 87.4691 76.166C87.2486 75.996 87.0869 75.7656 86.9815 75.4711C86.8761 75.1784 86.8237 74.8102 86.8237 74.3703V73.2978C86.7405 73.7112 86.6204 74.1135 86.4603 74.5081C86.3002 74.9027 86.0952 75.2558 85.8428 75.5674C85.5905 75.879 85.2949 76.1339 84.9508 76.3302C84.6079 76.5285 84.2223 76.6304 83.7911 76.6399C83.0871 76.6682 82.4588 76.5757 81.9052 76.3642C81.3518 76.1527 80.8851 75.8431 80.5067 75.4352C80.1265 75.0274 79.8348 74.5288 79.6296 73.9416C79.4245 73.3544 79.3172 72.6992 79.3078 71.9741V68.866C79.2984 68.3808 79.2268 68.0202 79.0951 67.786C78.9633 67.5519 78.6716 67.4348 78.2236 67.4348V67.297C78.745 67.3252 79.2513 67.3328 79.7463 67.3252L79.7501 67.3272Z" fill="#FF0000"/>
<path d="M93.0104 65.0156H93.1608V67.2985H94.0927V67.4363H93.1608V74.8854C93.1608 75.1932 93.1893 75.4651 93.244 75.7049C93.2986 75.9428 93.3909 76.1335 93.5185 76.2752C93.6467 76.4168 93.8386 76.4885 94.0944 76.4885V76.6396C93.6182 76.6396 93.2138 76.6037 92.8766 76.5301C92.5399 76.4564 92.2631 76.3356 92.0466 76.1656C91.8285 75.9957 91.6684 75.7653 91.5631 75.4708C91.4594 75.1781 91.407 74.8099 91.407 74.3699V69.2528C91.407 68.9771 91.4047 68.7317 91.399 68.5164C91.3939 68.3012 91.3671 68.118 91.3164 67.9669C91.2657 67.8159 91.1791 67.695 91.0567 67.6025C90.9325 67.5119 90.7576 67.4552 90.5298 67.4382V67.3004C92.103 67.3004 92.9312 66.5395 93.0121 65.0175L93.0104 65.0156Z" fill="#FF0000"/>
<path d="M95.094 76.5022C95.5417 76.5022 95.8316 76.3851 95.9655 76.151C96.0971 75.9169 96.1688 75.5524 96.178 75.0577V69.8858C96.178 69.6026 96.1762 69.3496 96.1705 69.1286C96.1648 68.9077 96.1386 68.7227 96.088 68.5716C96.0373 68.4206 95.9524 68.3035 95.8339 68.2204C95.7149 68.1373 95.5417 68.0882 95.3121 68.0693V67.9315C95.5041 67.9126 95.7171 67.8862 95.9507 67.8484C96.1836 67.8125 96.4172 67.7653 96.6507 67.7106C96.8843 67.6558 97.1138 67.5935 97.3434 67.5256C97.5712 67.4576 97.778 67.382 97.9608 67.2989V75.1408C97.9699 75.609 98.0451 75.9527 98.1864 76.1717C98.3276 76.3927 98.6136 76.5022 99.0431 76.5022V76.64C98.7679 76.6212 98.4444 76.608 98.0696 76.5985C97.6954 76.589 97.2961 76.5853 96.8763 76.5853C96.5829 76.5853 96.2873 76.5909 95.9843 76.5985C95.683 76.608 95.3856 76.6212 95.0923 76.64V76.5022H95.094ZM96.0128 65.6336C96.0128 65.3314 96.105 65.0746 96.2873 64.8632C96.4702 64.6517 96.7071 64.5459 97.0005 64.5459C97.3115 64.5459 97.5558 64.6536 97.7347 64.8688C97.9135 65.0841 98.0018 65.339 98.0018 65.6317C98.0018 65.9243 97.9078 66.1641 97.7216 66.3737C97.5336 66.5852 97.2944 66.6909 97.0005 66.6909C96.7071 66.6909 96.481 66.5965 96.2947 66.4096C96.1085 66.2226 96.0145 65.9621 96.0145 65.6317L96.0128 65.6336Z" fill="#FF0000"/>
<path d="M104.624 76.6398C103.92 76.6398 103.283 76.5152 102.717 76.2678C102.151 76.0205 101.669 75.6806 101.27 75.2501C100.873 74.8196 100.566 74.3154 100.351 73.7376C100.137 73.1598 100.029 72.5367 100.029 71.8664C100.029 71.1961 100.139 70.6258 100.359 70.0707C100.579 69.5156 100.889 69.0321 101.29 68.6186C101.691 68.2051 102.179 67.8822 102.751 67.6481C103.322 67.414 103.96 67.2969 104.664 67.2969C105.367 67.2969 106.016 67.4158 106.583 67.6537C107.15 67.8917 107.634 68.2202 108.036 68.6375C108.439 69.0548 108.748 69.5457 108.962 70.1103C109.177 70.6749 109.284 71.2867 109.284 71.9476C109.284 72.6085 109.177 73.2391 108.962 73.8113C108.748 74.3834 108.437 74.88 108.031 75.2973C107.624 75.7146 107.133 76.0432 106.557 76.281C105.981 76.519 105.337 76.638 104.624 76.638V76.6398ZM101.827 71.8796C101.827 72.1742 101.842 72.4914 101.874 72.835C101.906 73.1787 101.963 73.5205 102.045 73.8604C102.128 74.2002 102.237 74.5269 102.374 74.8441C102.512 75.1613 102.687 75.4408 102.904 75.6825C103.118 75.9261 103.37 76.1206 103.658 76.2678C103.946 76.4152 104.287 76.4888 104.68 76.4888C105.266 76.4888 105.74 76.334 106.107 76.0205C106.472 75.7089 106.758 75.3237 106.964 74.8649C107.169 74.4061 107.308 73.9094 107.381 73.3732C107.455 72.8369 107.491 72.3479 107.491 71.9079C107.491 71.6153 107.473 71.2999 107.442 70.9657C107.41 70.6315 107.353 70.2992 107.27 69.9687C107.188 69.6382 107.078 69.3192 106.941 69.0133C106.804 68.7074 106.63 68.4354 106.42 68.2013C106.209 67.9672 105.958 67.7821 105.665 67.6443C105.371 67.5065 105.034 67.4385 104.65 67.4385C104.266 67.4385 103.928 67.5065 103.635 67.6443C103.342 67.7821 103.094 67.9672 102.889 68.2013C102.683 68.4354 102.512 68.7036 102.374 69.0057C102.237 69.3078 102.128 69.625 102.045 69.9555C101.963 70.286 101.906 70.6182 101.874 70.9525C101.842 71.2867 101.827 71.5964 101.827 71.8815V71.8796Z" fill="#FF0000"/>
<path d="M110.274 76.5017C110.722 76.5017 111.012 76.3846 111.145 76.1505C111.277 75.9164 111.349 75.5519 111.358 75.0572V69.2509C111.358 68.9677 111.356 68.7146 111.351 68.4937C111.345 68.2728 111.319 68.0878 111.268 67.9367C111.217 67.7857 111.132 67.6686 111.014 67.5855C110.895 67.5024 110.722 67.4533 110.492 67.4345V67.2966C110.684 67.2777 110.897 67.2513 111.131 67.2135C111.364 67.1777 111.597 67.1305 111.831 67.0757C112.064 67.0209 112.294 66.9586 112.523 66.8906C112.751 66.8226 112.958 66.7471 113.141 66.6641V70.6406C113.223 70.2007 113.342 69.7815 113.496 69.3812C113.651 68.9828 113.848 68.6316 114.086 68.3294C114.323 68.0273 114.609 67.7819 114.942 67.593C115.275 67.4042 115.663 67.3061 116.102 67.2966C116.805 67.2683 117.436 67.3608 117.993 67.5723C118.55 67.7838 119.023 68.0934 119.412 68.5013C119.8 68.9091 120.099 69.4039 120.31 69.9873C120.521 70.5708 120.634 71.2241 120.653 71.9473V75.0705C120.662 75.5576 120.731 75.9164 120.865 76.1505C120.997 76.3846 121.288 76.5017 121.737 76.5017V76.6395C121.417 76.6207 121.099 76.6075 120.784 76.598C120.468 76.5886 120.165 76.5848 119.874 76.5848C119.581 76.5848 119.309 76.5867 119.058 76.5923C118.806 76.598 118.59 76.6037 118.407 76.6131C118.187 76.6226 117.991 76.632 117.818 76.6414V76.5036C118.064 76.5036 118.258 76.4753 118.402 76.4205C118.542 76.3658 118.65 76.2808 118.724 76.1656C118.796 76.0505 118.844 75.9013 118.866 75.7181C118.889 75.535 118.9 75.3197 118.9 75.0723V72.1002C118.9 71.4866 118.859 70.8937 118.776 70.3253C118.693 69.757 118.548 69.2547 118.337 68.8185C118.127 68.3823 117.841 68.0406 117.481 67.7932C117.12 67.5458 116.656 67.4269 116.088 67.4363C115.586 67.4552 115.151 67.6044 114.786 67.8838C114.421 68.1633 114.118 68.5239 113.88 68.9639C113.643 69.4039 113.463 69.8948 113.338 70.4367C113.214 70.9786 113.148 71.5149 113.139 72.0455V75.1403C113.148 75.6086 113.223 75.9522 113.365 76.1713C113.506 76.3922 113.792 76.5017 114.221 76.5017V76.6395C113.763 76.6207 113.393 76.6056 113.111 76.5923C112.826 76.5791 112.563 76.5716 112.314 76.5716C112.049 76.5716 111.774 76.5791 111.492 76.5923C111.208 76.6056 110.829 76.6226 110.353 76.6395H110.27V76.5017H110.274Z" fill="#FF0000"/>
<path d="M123.863 71.5489C123.588 71.3374 123.386 71.0862 123.253 70.7917C123.122 70.499 123.06 70.1931 123.069 69.8778C123.078 69.5605 123.163 69.249 123.323 68.9431C123.483 68.6353 123.718 68.3615 124.029 68.1179C124.34 67.8743 124.731 67.6779 125.201 67.5269C125.672 67.3758 126.227 67.3003 126.868 67.3003C127.206 67.3003 127.515 67.3154 127.793 67.3475C128.072 67.3796 128.337 67.4211 128.589 67.4721C128.84 67.5231 129.081 67.5854 129.308 67.6572C129.536 67.7308 129.77 67.8082 130.009 67.8913L129.501 69.8853H129.391C129.346 69.5284 129.256 69.198 129.124 68.894C128.99 68.5919 128.823 68.3332 128.616 68.116C128.411 67.9007 128.17 67.7308 127.895 67.6062C127.62 67.4816 127.315 67.4211 126.976 67.4211C126.363 67.4211 125.864 67.5307 125.474 67.7516C125.085 67.9725 124.806 68.2312 124.639 68.5295C124.469 68.8279 124.407 69.1357 124.454 69.451C124.5 69.7682 124.656 70.0213 124.921 70.2138C125.149 70.3781 125.477 70.5141 125.902 70.6198C126.327 70.7255 126.777 70.8313 127.253 70.937C127.729 71.0428 128.196 71.1674 128.659 71.309C129.12 71.4506 129.503 71.6376 129.804 71.8661C130.086 72.087 130.305 72.357 130.455 72.678C130.605 72.999 130.677 73.337 130.667 73.6901C130.658 74.0432 130.566 74.3963 130.393 74.7494C130.22 75.1025 129.952 75.4197 129.591 75.6992C129.23 75.9786 128.77 76.2052 128.213 76.3808C127.656 76.5545 126.993 76.6414 126.226 76.6414C125.576 76.6414 124.978 76.5753 124.43 76.4413C123.882 76.3091 123.314 76.09 122.73 75.7879L123.293 73.7656H123.361C123.406 74.1791 123.511 74.553 123.677 74.8872C123.841 75.2214 124.054 75.5085 124.315 75.7463C124.575 75.9843 124.882 76.1712 125.233 76.3034C125.585 76.4375 125.968 76.5035 126.378 76.5035C127.063 76.5035 127.613 76.3733 128.023 76.1108C128.433 75.8483 128.729 75.5425 128.908 75.1893C129.087 74.8362 129.154 74.4813 129.113 74.1225C129.071 73.7656 128.936 73.4843 128.708 73.2841C128.497 73.101 128.188 72.9555 127.782 72.8498C127.376 72.7441 126.939 72.6421 126.472 72.5402C126.005 72.4401 125.54 72.3154 125.074 72.1682C124.607 72.0209 124.206 71.8151 123.867 71.5489H123.863Z" fill="#FF0000"/>
<path d="M73.0759 80.8801C73.0948 80.8877 73.1042 80.9028 73.1042 80.9273C73.1042 80.9519 73.0985 80.9783 73.0872 81.0066C73.0759 81.035 73.0665 81.0595 73.0609 81.0803C72.8595 81.5524 72.6223 82.0036 72.3475 82.436C72.0727 82.8685 71.7433 83.2498 71.3575 83.5784C71.1542 83.7484 70.9377 83.9013 70.7119 84.0392C70.486 84.177 70.2413 84.2922 69.9816 84.3847C69.8159 84.4451 69.6673 84.4866 69.5318 84.5093C69.3962 84.532 69.24 84.5433 69.0593 84.5414C68.9577 84.5452 68.8561 84.5414 68.7544 84.5338C68.6528 84.5263 68.5493 84.5074 68.4457 84.481C67.9639 84.3432 67.6063 84.0486 67.371 83.5992C67.2919 83.4425 67.2298 83.2838 67.1847 83.1214C67.1395 82.961 67.1056 82.7986 67.0849 82.6362C67.0303 82.2 67.0284 81.7733 67.0792 81.3522C67.147 80.7668 67.2656 80.2041 67.435 79.666C67.6043 79.126 67.817 78.6086 68.075 78.1101C68.3554 77.5569 68.6998 77.0508 69.1102 76.5901C69.3943 76.271 69.7162 75.9972 70.0813 75.7706C70.3524 75.5969 70.6536 75.4854 70.9848 75.4307C71.1316 75.4042 71.2784 75.4118 71.4271 75.4496C71.6605 75.5062 71.8092 75.6497 71.8713 75.8801C71.9165 76.067 71.9165 76.2993 71.8713 76.575C71.8261 76.8506 71.7547 77.1395 71.6586 77.4398C71.5608 77.74 71.4535 78.0194 71.3368 78.2762C71.2182 78.533 71.1109 78.737 71.013 78.89C70.9848 78.9296 70.9491 78.9522 70.9077 78.9617C70.8662 78.9693 70.8211 78.9674 70.7703 78.9541C70.7439 78.9485 70.7232 78.9334 70.7081 78.9126C70.6931 78.8899 70.6893 78.8691 70.6987 78.8503C70.7081 78.8182 70.7194 78.7879 70.7364 78.7597C70.7439 78.7445 70.7514 78.7257 70.7608 78.7068C70.7966 78.6199 70.8399 78.5236 70.8869 78.4198C70.9905 78.1856 71.0996 77.9307 71.2126 77.6532C71.3255 77.3756 71.4177 77.098 71.4873 76.8223C71.557 76.5466 71.5834 76.2974 71.5645 76.0727C71.5306 75.695 71.3387 75.5534 70.9924 75.6497C70.8399 75.6913 70.6968 75.7479 70.5651 75.8178C70.4333 75.8877 70.3072 75.9651 70.1849 76.0538C69.9439 76.2294 69.7237 76.4239 69.5242 76.6391C69.3247 76.8525 69.144 77.081 68.9784 77.3246C68.1615 78.5142 67.6609 79.8642 67.4745 81.373C67.4199 81.8092 67.4218 82.2566 67.4783 82.7098C67.5102 82.9704 67.5856 83.2291 67.706 83.4802C67.8284 83.7276 67.9714 83.9183 68.1389 84.0505C68.3064 84.1826 68.4796 84.2676 68.6603 84.3092C68.841 84.3507 69.0104 84.362 69.1685 84.3432C69.4471 84.311 69.7106 84.2374 69.9572 84.1241C70.4465 83.9013 70.8455 83.6634 71.1561 83.4104C71.4667 83.1573 71.7264 82.893 71.9372 82.6154C72.148 82.3378 72.3456 82.047 72.5282 81.743C72.6016 81.6222 72.6656 81.507 72.7202 81.3956C72.7842 81.2634 72.867 81.1162 72.9705 80.9538C73.0044 80.9028 73.044 80.8801 73.0854 80.8858L73.0759 80.8801Z" fill="black"/>
<path d="M75.1144 81.1072C75.0768 81.1676 75.0354 81.2319 74.9902 81.2998C74.77 81.6227 74.5931 81.8153 74.4594 81.8776C74.3258 81.9399 74.2147 81.9569 74.1244 81.9286C74.0359 81.9003 73.9625 81.8493 73.9079 81.7794C73.8514 81.7096 73.8138 81.6303 73.7912 81.5415C73.699 81.7549 73.5371 81.8625 73.3094 81.8625C73.1814 81.8625 73.0779 81.8059 72.9988 81.6925C72.9198 81.5793 72.8689 81.4376 72.8482 81.2677C72.8276 81.0978 72.8426 80.9241 72.8972 80.7484C72.9103 80.6899 72.9461 80.6503 73.0045 80.6295C73.044 80.6144 73.0873 80.6144 73.1306 80.6333C73.1739 80.6521 73.1964 80.6805 73.2002 80.7183C73.2002 80.7579 73.1964 80.7957 73.1908 80.8334C73.1833 80.8617 73.1776 80.8901 73.1758 80.9165C73.1701 81.0204 73.172 81.1355 73.1814 81.2601C73.1908 81.3848 73.2247 81.4924 73.2793 81.5812C73.3338 81.6529 73.3941 81.6605 73.4618 81.6076C73.5277 81.5547 73.5861 81.4716 73.6369 81.3603C73.6764 81.2715 73.7065 81.1828 73.7291 81.0959C73.7517 81.009 73.7649 80.9411 73.7724 80.892L73.7818 80.8523C73.7912 80.8145 73.8025 80.7768 73.8119 80.7409C73.827 80.688 73.8439 80.6352 73.859 80.5842C73.8872 80.486 73.9569 80.4444 74.0679 80.4596C74.1357 80.4652 74.1733 80.4992 74.179 80.5596C74.1846 80.6427 74.1865 80.7258 74.1827 80.807C74.179 80.8939 74.1752 80.9788 74.1696 81.0619C74.162 81.1828 74.1564 81.3017 74.1545 81.4207C74.1507 81.5944 74.2241 81.6624 74.371 81.6265C74.5178 81.5906 74.7116 81.3791 74.9507 80.9901C74.9733 80.9505 74.9902 80.9052 74.9977 80.8523C75.0052 80.7995 75.0297 80.7428 75.0711 80.6786C75.1257 80.6012 75.2179 80.5559 75.3497 80.5446C75.4137 80.5389 75.4739 80.5427 75.5285 80.554C75.585 80.5672 75.6358 80.5936 75.6828 80.6352C75.6922 80.6446 75.6998 80.6559 75.7054 80.6692C75.7111 80.6824 75.7073 80.6975 75.6998 80.7164C75.6847 80.7447 75.6603 80.7598 75.6283 80.7598C75.6057 80.7598 75.5831 80.756 75.5605 80.7503C75.5379 80.7409 75.5172 80.7315 75.4984 80.722L75.4607 80.7031C75.4193 80.688 75.3873 80.6899 75.3648 80.7088C75.3421 80.7296 75.3309 80.7598 75.3309 80.8032C75.3346 80.8768 75.3648 80.9561 75.4212 81.0411C75.4777 81.1261 75.536 81.2035 75.5925 81.2734C75.6151 81.2979 75.6358 81.3225 75.6509 81.3451C75.6659 81.3603 75.7092 81.3584 75.7769 81.3376C75.8447 81.3168 75.9689 81.2583 76.1515 81.162C76.3322 81.0657 76.4245 81.0355 76.4245 81.0676C76.4245 81.0997 76.3548 81.1601 76.2136 81.2451C76.0724 81.33 75.9689 81.3942 75.903 81.4376C75.8372 81.4811 75.8033 81.5075 75.8033 81.5169C75.8165 81.5453 75.8297 81.5944 75.8447 81.6624C75.8597 81.7303 75.8654 81.804 75.8616 81.8852C75.8579 81.9645 75.8315 82.0362 75.7845 82.0985C75.7374 82.1608 75.6565 82.1986 75.5454 82.2119C75.4344 82.2213 75.3346 82.2043 75.2462 82.1608C75.1577 82.1174 75.1031 82.0551 75.0805 81.9739C75.058 81.8927 75.0843 81.7983 75.1615 81.6888C75.2123 81.6284 75.2725 81.5755 75.344 81.5302C75.3685 81.5151 75.393 81.4962 75.4193 81.4773C75.3346 81.3848 75.2537 81.2885 75.1765 81.1903C75.1539 81.162 75.1332 81.1336 75.1144 81.1091V81.1072ZM75.4532 82.0457C75.4946 82.0419 75.5229 82.0192 75.536 81.9758C75.5492 81.9324 75.553 81.8852 75.5511 81.8323C75.5473 81.7794 75.5436 81.7417 75.5417 81.7152C75.536 81.7001 75.5266 81.6888 75.5115 81.685C75.4965 81.6812 75.4834 81.6812 75.4701 81.6869C75.4231 81.7247 75.3873 81.7719 75.3648 81.8304C75.3421 81.8889 75.344 81.9399 75.3704 81.9833C75.3798 81.9985 75.3911 82.0136 75.4043 82.0249C75.4174 82.0362 75.4363 82.0438 75.4551 82.0476L75.4532 82.0457Z" fill="black"/>
<path d="M77.8679 81.2076C77.9469 81.1301 77.9827 81.1113 77.9714 81.149C77.9601 81.1868 77.9169 81.2566 77.8397 81.3586C77.7625 81.4606 77.6684 81.5682 77.5536 81.6872C77.4387 81.8042 77.3183 81.9062 77.1903 81.9931C77.0623 82.08 76.9419 82.1272 76.827 82.1328C76.6859 82.1328 76.5748 82.0913 76.4901 82.0082C76.4054 81.9251 76.3452 81.8137 76.3094 81.6777C76.2737 81.5418 76.2586 81.3926 76.2643 81.2321C76.2718 81.0528 76.2774 80.8753 76.2831 80.6958C76.2869 80.6052 76.2888 80.5184 76.2925 80.4315C76.3 80.288 76.3057 80.1445 76.3076 80.001C76.3113 79.9557 76.3038 79.9179 76.285 79.8877C76.268 79.8575 76.236 79.8405 76.1908 79.8367C76.14 79.8329 76.0761 79.8329 76.0008 79.8329H75.8295C75.7636 79.8254 75.7184 79.8084 75.6959 79.7801C75.6732 79.7517 75.6921 79.7234 75.7485 79.6932C75.79 79.6781 75.837 79.6686 75.8953 79.6668C75.9518 79.6668 76.0083 79.6668 76.0628 79.6686C76.0967 79.6724 76.1287 79.6724 76.1532 79.6724C76.2379 79.6724 76.2906 79.6592 76.3094 79.6328C76.3283 79.6064 76.3396 79.5535 76.3433 79.4723C76.349 79.3873 76.3527 79.3024 76.3565 79.2174C76.3602 79.1721 76.3621 79.1268 76.3678 79.0833C76.3678 79.0172 76.3847 78.9568 76.4205 78.9021C76.4582 78.851 76.5052 78.8322 76.5635 78.8435C76.6143 78.8567 76.6426 78.8888 76.6482 78.9398C76.652 79.0248 76.6539 79.1097 76.6539 79.1947C76.6576 79.2419 76.6576 79.291 76.6539 79.3382C76.6539 79.3892 76.6539 79.4421 76.6576 79.4968C76.6539 79.5724 76.6633 79.6196 76.684 79.6404C76.7047 79.6611 76.7537 79.6705 76.8345 79.6705H77.2204C77.2788 79.6705 77.4501 79.6668 77.7361 79.6592C78.0222 79.6517 78.1766 79.6743 78.1992 79.7291C78.2218 79.7838 78.0411 79.816 77.6552 79.8235C77.4218 79.8367 77.2411 79.8424 77.115 79.8424C77.0303 79.8386 76.9531 79.8386 76.8854 79.8386C76.7706 79.8386 76.7009 79.8594 76.6746 79.899C76.6482 79.9387 76.6351 80.0199 76.6388 80.1388C76.6351 80.2427 76.6313 80.3673 76.6237 80.5127C76.6049 80.8129 76.5955 81.1188 76.5955 81.4323C76.6031 81.6476 76.6407 81.7873 76.7104 81.8496C76.78 81.9138 76.8703 81.9251 76.9814 81.8854C77.0924 81.8458 77.2129 81.774 77.3427 81.6721C77.4726 81.5701 77.6006 81.4606 77.7286 81.3416C77.7569 81.3058 77.7889 81.2718 77.8284 81.2397C77.8416 81.2284 77.8528 81.217 77.866 81.2076H77.8679Z" fill="black"/>
<path d="M79.5076 81.0637C79.5302 81.041 79.5415 81.0693 79.5415 81.1429C79.5415 81.2185 79.4756 81.3224 79.3382 81.4564C79.2009 81.5905 79.0597 81.6547 78.9147 81.6471C78.8827 81.6433 78.8564 81.6471 78.8338 81.6547C78.8112 81.6622 78.7924 81.6811 78.7755 81.7095C78.7604 81.7359 78.7416 81.7585 78.719 81.7812L78.7152 81.7849C78.6249 81.8813 78.5195 81.9436 78.399 81.9738C78.2786 82.004 78.1637 81.9945 78.0546 81.9455C77.9454 81.8964 77.8682 81.802 77.8193 81.6641C77.7854 81.5395 77.7816 81.4149 77.8099 81.2921C77.8344 81.1826 77.8738 81.0807 77.9285 80.9844C77.9943 80.856 78.0809 80.7672 78.1882 80.7124C78.2955 80.6596 78.4159 80.6293 78.5496 80.6237C78.7491 80.6143 78.8752 80.7087 78.9279 80.9069C78.9599 81.0221 78.9674 81.1373 78.9524 81.2563C78.9486 81.2827 78.9429 81.311 78.9373 81.3393C78.9317 81.3582 78.926 81.3771 78.9223 81.396C78.9166 81.4602 78.9449 81.4885 79.0051 81.4828C79.1726 81.4545 79.3401 81.3129 79.5058 81.0599L79.5076 81.0637ZM78.3275 81.8057C78.431 81.7585 78.5025 81.6773 78.5421 81.5621C78.3708 81.4527 78.2578 81.2959 78.1995 81.092C78.1468 81.1883 78.1129 81.2997 78.1016 81.4281C78.0903 81.5565 78.1016 81.6622 78.1393 81.7453C78.1769 81.8284 78.239 81.8492 78.3275 81.8076V81.8057ZM78.6192 81.3356C78.6475 81.294 78.6625 81.2449 78.6682 81.1845C78.6738 81.126 78.67 81.0656 78.6588 81.007C78.6475 80.9485 78.6324 80.9013 78.6136 80.8692C78.5947 80.8352 78.5741 80.8257 78.5514 80.8389C78.5119 80.8729 78.4912 80.9239 78.4856 80.99C78.4818 81.0561 78.4912 81.1203 78.5157 81.1864C78.5402 81.2525 78.5741 81.3016 78.6192 81.3375V81.3356Z" fill="black"/>
<path d="M82.1161 81.4512V81.4474C82.1292 81.4342 82.1594 81.4059 82.2101 81.3606C82.2591 81.3171 82.312 81.2737 82.3644 81.2341C82.4191 81.1944 82.459 81.1737 82.4812 81.1718C82.504 81.1699 82.5 81.2058 82.4641 81.2794C82.459 81.2889 82.4493 81.3021 82.4379 81.3153C82.4265 81.3285 82.4157 81.3417 82.4077 81.3549C82.4043 81.3587 82.4003 81.3606 82.3969 81.3662C82.1748 81.6061 81.9993 81.7722 81.8735 81.8629C81.7476 81.9554 81.6228 81.9988 81.5009 81.9931C81.3727 81.9799 81.288 81.9309 81.2428 81.844C81.1977 81.7571 81.177 81.6533 81.177 81.5286C81.177 81.404 81.1883 81.2794 81.2071 81.151C81.2278 81.0188 81.2353 80.9055 81.2316 80.813C81.2278 80.7205 81.1958 80.6638 81.1356 80.6487C81.0791 80.645 81.0207 80.6922 80.9624 80.7885C80.9022 80.8866 80.8457 80.9999 80.793 81.1302C80.7403 81.2586 80.6951 81.3738 80.6594 81.472C80.6405 81.5249 80.6274 81.5645 80.618 81.5872C80.5916 81.6382 80.5558 81.6722 80.5069 81.6873C80.4599 81.7023 80.4091 81.7005 80.3544 81.6778C80.3225 81.657 80.3036 81.6306 80.2961 81.5947C80.2867 81.5173 80.2848 81.438 80.2867 81.3549C80.2905 81.3021 80.2905 81.2492 80.2867 81.1982V81.0736C80.2867 81.049 80.2848 81.0263 80.2792 81.0056C80.2735 80.9849 80.2641 80.9754 80.2472 80.9754C80.2227 80.9716 80.1926 81.0018 80.1568 81.0641C80.1211 81.1265 80.0853 81.2001 80.0495 81.287C80.0137 81.3738 79.9799 81.4512 79.9517 81.5211C79.9253 81.5815 79.9084 81.623 79.899 81.6457C79.8952 81.6551 79.8896 81.6665 79.8839 81.6759C79.8557 81.7326 79.8255 81.7892 79.7973 81.8478C79.7729 81.895 79.7315 81.9233 79.6731 81.9327C79.5564 81.9535 79.4924 81.9044 79.483 81.7892C79.4736 81.4927 79.4661 81.1963 79.4585 80.8979C79.4585 80.8206 79.5056 80.7941 79.6016 80.8168C79.6976 80.8394 79.7502 80.8885 79.7596 80.9659C79.7691 81.0906 79.7823 81.1547 79.803 81.1547C79.8218 81.1547 79.8632 81.1019 79.9234 80.9886C79.9554 80.9357 79.9893 80.881 80.0232 80.8262C80.0646 80.7545 80.1192 80.6903 80.1907 80.6336C80.2622 80.5864 80.3338 80.5713 80.3996 80.5921C80.4674 80.611 80.5201 80.6619 80.5577 80.745C80.5728 80.779 80.5897 80.7979 80.6048 80.8017C80.6199 80.8054 80.6368 80.7979 80.6518 80.779C80.6669 80.762 80.6838 80.7413 80.6989 80.7167C80.7121 80.6903 80.7271 80.6676 80.7422 80.6487C80.8326 80.5505 80.9379 80.4807 81.0622 80.4429C81.1864 80.4051 81.2975 80.4051 81.3991 80.4467C81.5009 80.4882 81.5573 80.5789 81.5738 80.7205C81.5795 80.8885 81.5687 81.0603 81.5402 81.2359C81.5288 81.3209 81.5197 81.4002 81.5118 81.4758C81.5066 81.6401 81.5362 81.7288 81.6006 81.7458C81.6661 81.7609 81.7453 81.7363 81.8393 81.6683C81.9338 81.6004 82.0238 81.5267 82.1127 81.4474L82.1161 81.4512Z" fill="black"/>
<path d="M93.2023 75.0727C93.3265 75.152 93.368 75.2654 93.3287 75.4088C93.302 75.4787 93.2684 75.5429 93.2268 75.6052C93.1573 75.7034 93.0741 75.7922 92.9784 75.8696C92.5324 76.2491 92.0204 76.4851 91.4405 76.572C91.3123 76.5928 91.1865 76.6154 91.0583 76.64C91.0002 76.6532 90.9455 76.6494 90.8965 76.6306C90.8646 76.6173 90.8498 76.5966 90.8498 76.5663C90.8515 76.5531 90.8572 76.5399 90.8646 76.5286C90.8703 76.5154 90.8794 76.5078 90.8874 76.5059C90.9284 76.4832 90.9717 76.4663 91.0173 76.4587C91.0737 76.4492 91.1301 76.4379 91.1882 76.4285C91.2297 76.4247 91.273 76.4191 91.3163 76.4115C91.6023 76.3586 91.866 76.2623 92.1052 76.1226C92.3439 75.9829 92.5643 75.8091 92.7694 75.6015C92.8298 75.5429 92.8765 75.475 92.9089 75.3938C92.9426 75.2975 92.9163 75.2295 92.8281 75.1898C92.713 75.1483 92.5945 75.1256 92.4738 75.1218H91.8375C91.4593 75.1218 91.0811 75.1426 90.7063 75.1823C90.3303 75.2219 89.9555 75.2691 89.5807 75.322C88.9844 75.3994 88.3914 75.4919 87.7984 75.6015C87.8024 75.6807 87.8024 75.7619 87.8024 75.8412V83.6491C87.8024 83.8983 87.7984 84.1457 87.7893 84.3968C87.7893 84.5309 87.725 84.5856 87.5974 84.5649C87.533 84.5554 87.4971 84.5196 87.4863 84.461C87.4863 84.4346 87.4863 84.4082 87.4823 84.3836C87.4732 84.2628 87.4675 84.14 87.4675 84.0154C87.4635 83.211 87.4635 82.4047 87.4635 81.5966V75.6656C87.4635 75.6656 87.4504 75.6713 87.4447 75.6713C87.4259 75.6751 87.4088 75.677 87.3917 75.6807C86.9195 75.7733 86.453 75.8847 85.9917 76.0112C85.5303 76.1377 85.0752 76.2888 84.6269 76.4625C84.4668 76.5229 84.3108 76.589 84.1547 76.6626C84.1074 76.6853 84.0607 76.706 84.0174 76.7268C83.9308 76.759 83.8608 76.8156 83.8101 76.8987C83.7765 76.9496 83.7235 76.9761 83.6523 76.978C83.5822 76.978 83.5201 76.9591 83.4655 76.9194C83.4245 76.8798 83.4188 76.8382 83.4507 76.7929C83.4843 76.7457 83.5275 76.7042 83.5765 76.6702C83.6255 76.6362 83.6785 76.606 83.7332 76.5758C84.006 76.436 84.2846 76.3152 84.5688 76.2114C85.2916 75.947 86.0253 75.7336 86.7749 75.5694C87.0044 75.5222 87.234 75.475 87.4635 75.4315C87.4652 75.3843 87.4692 75.3371 87.4732 75.2918C87.4823 75.2314 87.5125 75.1879 87.5615 75.1652C87.6105 75.1426 87.6652 75.1445 87.7272 75.1728C87.7722 75.1974 87.7928 75.2351 87.791 75.288C87.791 75.3163 87.791 75.3447 87.795 75.373C88.3441 75.2767 88.8961 75.1898 89.4509 75.1143C90.0273 75.0312 90.6049 74.967 91.1847 74.9217C91.6364 74.8896 92.0881 74.8858 92.5415 74.9084C92.6885 74.9179 92.8332 74.9406 92.9767 74.9764C93.0593 74.9953 93.1345 75.0293 93.204 75.0765L93.2023 75.0727Z" fill="black"/>
<path d="M89.8274 81.372C89.7824 81.4645 89.7072 81.5684 89.5979 81.6817C89.4891 81.7949 89.3683 81.8667 89.231 81.8969C89.0938 81.9272 88.9639 81.8799 88.8397 81.7553C88.7924 81.7005 88.7566 81.6364 88.7338 81.5646C88.7116 81.4928 88.7042 81.4211 88.7098 81.3512V81.2795C88.7098 81.2059 88.7133 81.119 88.719 81.0227C88.7247 80.9245 88.7395 80.8376 88.7623 80.7583C88.785 80.679 88.8204 80.6337 88.8676 80.6167C89.0049 80.5827 89.0801 80.6299 89.0915 80.7602C89.0915 80.8017 89.0915 80.8452 89.0881 80.8867C89.0841 80.9094 89.0841 80.9283 89.0841 80.9472C89.0801 81.0076 89.0784 81.0699 89.075 81.1303C89.075 81.1775 89.0727 81.2266 89.0693 81.2738C89.0653 81.4834 89.1126 81.6099 89.2105 81.6496C89.3062 81.6892 89.4173 81.6477 89.5415 81.5231C89.6656 81.3984 89.7465 81.2946 89.7864 81.2115C89.824 81.1284 89.8519 81.1115 89.869 81.1587C89.8861 81.2059 89.873 81.2776 89.8274 81.3701V81.372ZM89.0636 80.1692C89.0448 80.1843 89.022 80.1956 88.9958 80.1994C88.9696 80.2032 88.9451 80.2013 88.924 80.1937C88.9092 80.1805 88.8978 80.1635 88.8938 80.1428C88.8904 80.122 88.8881 80.0975 88.8881 80.0672C88.8881 80.0616 88.8881 80.0559 88.8921 80.0503C88.8961 80.0238 88.9018 79.9973 88.9109 79.9709C88.9394 79.9011 88.9992 79.869 89.0915 79.8747C89.1239 79.8784 89.1479 79.8916 89.1672 79.9143C89.186 79.9369 89.1895 79.9615 89.1781 79.9898C89.1558 80.0616 89.1183 80.1201 89.0636 80.1692Z" fill="black"/>
<path d="M91.3351 81.2416C91.3596 81.1812 91.3858 81.1529 91.416 81.1529C91.4462 81.1529 91.4536 81.1831 91.4444 81.2416C91.3972 81.3889 91.3391 81.5324 91.273 81.6665C91.2069 81.8024 91.1169 81.9233 91.0019 82.0309C90.9153 82.1178 90.8122 82.1744 90.6914 82.199C90.5279 82.2216 90.3924 82.2028 90.287 82.1404C90.1816 82.0781 90.0968 81.9875 90.0347 81.8723C89.9726 81.7552 89.9253 81.6287 89.8951 81.489C89.8649 81.3512 89.8444 81.2152 89.837 81.0849C89.8142 80.8376 89.7971 80.5147 89.7863 80.1106C89.7749 79.7084 89.7783 79.2836 89.7971 78.8341C89.8159 78.3848 89.8592 77.9693 89.9293 77.586C89.9971 77.2027 90.0985 76.9063 90.2323 76.6948C90.3092 76.5909 90.3981 76.54 90.4995 76.5381C90.6009 76.5381 90.6914 76.5834 90.7723 76.6797C90.8253 76.7533 90.8663 76.8326 90.8948 76.9157C90.9227 76.9988 90.9398 77.0819 90.9495 77.1687C90.9774 77.4633 90.974 77.7748 90.9381 78.1015C90.9022 78.4282 90.8441 78.7794 90.7666 79.1495C90.6874 79.5215 90.5957 79.8481 90.4864 80.1313C90.377 80.4146 90.287 80.6393 90.2152 80.8036C90.1759 80.8697 90.1606 80.9716 90.1719 81.1057C90.1851 81.253 90.2135 81.4059 90.2545 81.5645C90.2961 81.7232 90.3565 81.8496 90.4334 81.9441C90.5052 82.0215 90.586 82.046 90.6766 82.0158C90.7666 81.9875 90.8555 81.9252 90.9438 81.8327C91.0321 81.7401 91.1112 81.6382 91.179 81.5287C91.2468 81.4191 91.2992 81.3228 91.3351 81.2379V81.2416ZM90.1776 79.0135C90.168 79.1099 90.1606 79.2533 90.1531 79.4478C90.1457 79.6423 90.1383 79.8387 90.1304 80.0388C90.1247 80.2616 90.1173 80.4373 90.1116 80.5619C90.1833 80.4014 90.2642 80.1691 90.3582 79.8651C90.4522 79.5611 90.5388 79.2005 90.6162 78.7869C90.6931 78.3734 90.7444 77.9259 90.7666 77.4425C90.7535 77.1612 90.7199 76.9705 90.6652 76.8704C90.6105 76.7703 90.5519 76.7609 90.4881 76.844C90.4243 76.9271 90.3736 77.1008 90.3354 77.367C90.2773 77.8069 90.2323 78.2469 90.2021 78.6888C90.1925 78.7983 90.185 78.9059 90.1776 79.0135Z" fill="black"/>
<path d="M93.4039 81.2034C93.4358 81.1846 93.466 81.1695 93.4979 81.16C93.5281 81.1506 93.5486 81.1506 93.5583 81.1619C93.5674 81.1733 93.5543 81.1997 93.5207 81.2393C93.4113 81.364 93.2814 81.4792 93.1311 81.583C92.9801 81.6869 92.824 81.7737 92.6657 81.8454C92.5415 81.9021 92.4099 81.9474 92.2727 81.9795C92.1354 82.0135 91.9975 82.021 91.862 82.0022C91.7264 81.9833 91.6045 81.9229 91.4912 81.8209C91.322 81.6642 91.2525 81.4716 91.2804 81.2469C91.3049 81.0675 91.375 80.9146 91.4894 80.7881C91.6045 80.6634 91.7492 80.5766 91.9241 80.5332C92.071 80.501 92.2163 80.4973 92.3627 80.5218C92.4287 80.5313 92.4908 80.5539 92.5455 80.5898C92.5962 80.6294 92.6247 80.6748 92.6281 80.7276C92.6338 80.7805 92.6133 80.8296 92.5683 80.8787C92.476 80.9618 92.3684 81.0109 92.2459 81.026C92.1109 81.0486 91.973 81.0637 91.8358 81.0694C91.7697 81.0694 91.723 81.0826 91.6968 81.1109C91.67 81.1393 91.6535 81.1865 91.6495 81.2525C91.6267 81.4338 91.6854 81.583 91.8227 81.6963C91.9075 81.7642 92.0106 81.7945 92.1331 81.7832C92.2556 81.7737 92.3854 81.7397 92.5227 81.683C92.66 81.6264 92.7938 81.5622 92.9254 81.4867C93.0576 81.4112 93.1761 81.3413 93.2814 81.2752C93.3264 81.2469 93.3663 81.2224 93.3999 81.2034H93.4039ZM91.8944 80.8164C91.8944 80.8164 91.8922 80.8201 91.8887 80.8201C91.883 80.8258 91.8756 80.8334 91.866 80.8409C91.8563 80.8485 91.8472 80.856 91.8398 80.8654C91.8318 80.873 91.8284 80.8787 91.8284 80.8825C91.8318 80.8919 91.8563 80.8957 91.9075 80.89C91.9565 80.8844 92.0106 80.8768 92.0693 80.8636C92.1274 80.8504 92.1787 80.8353 92.218 80.8126C92.2573 80.7918 92.2687 80.7673 92.2539 80.737C92.2459 80.7276 92.2368 80.7201 92.2271 80.7144C92.2163 80.7088 92.2049 80.7031 92.1918 80.7012C92.1331 80.7012 92.0807 80.7125 92.0334 80.7352C91.9861 80.7578 91.9394 80.7843 91.8961 80.8164H91.8944Z" fill="black"/>
<path d="M97.466 80.9052C97.5127 80.8807 97.5617 80.8618 97.6107 80.8504C97.6597 80.8391 97.699 80.8354 97.7275 80.841C97.7559 80.8467 97.7651 80.858 97.7537 80.8769C97.7423 80.8958 97.7013 80.9241 97.6278 80.96C97.5053 81.0147 97.3737 81.0922 97.2342 81.1941C97.0952 81.296 96.9727 81.4112 96.8634 81.5396C96.7546 81.668 96.6868 81.804 96.6583 81.9475C96.5472 82.5668 96.3838 83.1748 96.1707 83.7678C96.075 84.0472 95.9543 84.3172 95.8073 84.5778C95.7435 84.693 95.6683 84.7968 95.5801 84.8894C95.5271 84.946 95.4633 84.98 95.3881 84.9932C95.2634 85.0083 95.1694 84.9989 95.1056 84.9592C95.0418 84.9196 94.9962 84.8365 94.966 84.7062C94.9398 84.5495 94.9438 84.3928 94.9757 84.236C95.0395 83.8886 95.1506 83.5582 95.3106 83.241C95.4348 82.986 95.5721 82.7387 95.7247 82.5027C95.8751 82.2666 96.0466 82.0419 96.2385 81.8323C96.2858 81.7795 96.3194 81.7228 96.3405 81.6624C96.361 81.6019 96.3724 81.5415 96.3781 81.4774C96.3838 81.398 96.3912 81.3168 96.4026 81.2375C96.4436 80.9052 96.4738 80.5691 96.4926 80.2311C96.5324 79.5192 96.5193 78.8074 96.4493 78.0955C96.4117 77.7179 96.3348 77.3478 96.2197 76.9852C96.169 76.8153 96.0916 76.6586 95.9885 76.5151C95.96 76.4773 95.9281 76.4433 95.8979 76.4112C95.8153 76.3243 95.7361 76.2771 95.6609 76.2677C95.5857 76.2583 95.5009 76.2923 95.4086 76.3621C95.0982 76.5925 94.9079 76.8984 94.8418 77.2817C94.8196 77.4233 94.7439 77.4724 94.6163 77.429C94.5559 77.4063 94.524 77.3667 94.52 77.3043C94.5166 77.2515 94.5223 77.1967 94.5354 77.1419C94.6237 76.8096 94.7929 76.5283 95.0452 76.2998C95.1563 76.194 95.2804 76.1242 95.416 76.0921C95.5516 76.06 95.6945 76.0581 95.8455 76.0827C95.9298 76.0978 96.0073 76.1299 96.0728 76.1771C96.1388 76.2243 96.2009 76.279 96.259 76.3432C96.4003 76.5094 96.5039 76.6944 96.57 76.8984C96.6435 77.1061 96.6999 77.3157 96.7409 77.529C96.7808 77.7424 96.811 77.9558 96.8298 78.173C96.852 78.4845 96.8691 78.7753 96.8822 79.051C96.8862 79.1548 96.8896 79.2549 96.8975 79.3512C96.8879 79.9516 96.8543 80.503 96.7956 81.0034C96.7899 81.0676 96.7865 81.1318 96.7825 81.1941C96.7825 81.2073 96.7825 81.2206 96.7865 81.2338C96.7899 81.247 96.7996 81.2545 96.8144 81.2583C96.8241 81.2621 96.8355 81.2621 96.8446 81.2583C96.8543 81.2545 96.8617 81.2526 96.8674 81.2488C97.0006 81.1563 97.1288 81.0808 97.2496 81.0223C97.3173 80.9902 97.3903 80.9524 97.4717 80.9071L97.466 80.9052ZM96.165 82.5876C96.1724 82.5593 96.1781 82.5272 96.1804 82.4951C96.1804 82.4819 96.1804 82.4668 96.1838 82.4516C95.9993 82.6858 95.8375 82.9294 95.7002 83.1824C95.563 83.4354 95.4536 83.7055 95.371 83.9887C95.3425 84.0926 95.318 84.1945 95.3015 84.2983C95.2844 84.4022 95.2804 84.506 95.2901 84.6099C95.2901 84.625 95.2935 84.6401 95.2992 84.6534C95.3049 84.6666 95.3163 84.6741 95.3311 84.6779C95.3596 84.6835 95.3824 84.6741 95.3989 84.6496C95.5043 84.4985 95.5932 84.338 95.6626 84.1662C95.7737 83.9112 95.8694 83.6507 95.9486 83.3882C96.0278 83.1258 96.0995 82.8576 96.1633 82.5857L96.165 82.5876Z" fill="black"/>
<path d="M99.5644 81.4177C99.6755 81.2402 99.7416 81.1288 99.7638 81.0797C99.7849 81.0325 99.8014 81.0344 99.8128 81.0854C99.8242 81.1364 99.7883 81.2553 99.7057 81.4385C99.6208 81.6217 99.5172 81.7633 99.393 81.8633C99.2688 81.9634 99.152 81.9993 99.045 81.9729C98.9379 81.9464 98.8604 81.8709 98.8137 81.7482C98.7664 81.6236 98.7533 81.4668 98.7721 81.278C98.7721 81.2742 98.7721 81.2666 98.7755 81.2534C98.7795 81.2213 98.7835 81.1741 98.7926 81.1118C98.8 81.0495 98.8057 80.9853 98.8097 80.9173C98.8137 80.8494 98.8097 80.7946 98.804 80.7512C98.7966 80.7077 98.7755 80.6926 98.7436 80.7058C98.6667 80.7474 98.5915 80.8305 98.5198 80.9532C98.4463 81.076 98.3808 81.2044 98.3204 81.3384C98.26 81.4725 98.2185 81.582 98.194 81.6632C98.1849 81.6896 98.1752 81.7161 98.1661 81.7463C98.153 81.784 98.1376 81.8218 98.1228 81.8596C98.0812 81.9691 98.0077 82.0106 97.9023 81.9861C97.8442 81.9729 97.8101 81.937 97.8009 81.8785C97.797 81.8332 97.797 81.7916 97.797 81.7501C97.797 81.7236 97.797 81.699 97.7935 81.6783C97.7878 81.3554 97.7799 81.0306 97.769 80.704C97.7725 80.6662 97.7878 80.6398 97.8197 80.6265C97.8499 80.6114 97.8852 80.6039 97.9285 80.6039C97.961 80.6039 97.9912 80.6133 98.0191 80.6304C98.0476 80.6473 98.0641 80.6851 98.0721 80.7398C98.0755 80.7588 98.0755 80.7776 98.0755 80.7965C98.0795 80.806 98.0795 80.8154 98.0795 80.8248C98.0852 80.8701 98.0886 80.9079 98.0886 80.94C98.0886 80.9872 98.0926 81.0212 98.0983 81.0382C98.104 81.0552 98.1188 81.0552 98.1399 81.0363C98.1604 81.0174 98.194 80.9721 98.243 80.9022C98.3261 80.7738 98.4275 80.6662 98.55 80.5774C98.661 80.4981 98.7835 80.4642 98.9168 80.4774C99.0319 80.4887 99.1088 80.5492 99.1463 80.6586C99.1617 80.7134 99.1708 80.7701 99.1708 80.8248C99.1708 80.8796 99.1674 80.9362 99.16 80.9929C99.156 81.0514 99.152 81.11 99.1463 81.1722C99.1429 81.1912 99.1389 81.21 99.1355 81.2289C99.1167 81.4366 99.1219 81.5764 99.1543 81.6462C99.1862 81.7161 99.2352 81.7406 99.299 81.7161C99.3628 81.6915 99.4517 81.5914 99.5644 81.414V81.4177Z" fill="black"/>
<path d="M100.999 81.0656C100.999 81.0996 100.929 81.1582 100.788 81.2431C100.647 81.3281 100.543 81.3923 100.477 81.4357C100.411 81.4791 100.378 81.5056 100.378 81.515C100.391 81.5434 100.404 81.5925 100.419 81.6604C100.434 81.7284 100.44 81.8021 100.436 81.8833C100.432 81.9625 100.406 82.0343 100.358 82.0966C100.312 82.1589 100.231 82.1967 100.12 82.2099C100.009 82.2193 99.909 82.2023 99.8202 82.1589C99.7336 82.1155 99.6772 82.0531 99.655 81.9719C99.6322 81.8908 99.6607 81.7963 99.7359 81.6869C99.7866 81.6264 99.8469 81.5735 99.9181 81.5282C99.9426 81.5131 99.9671 81.4942 99.9933 81.4754C99.909 81.3829 99.8281 81.2866 99.7507 81.1902C99.6738 81.0939 99.6248 81.0052 99.6037 80.9297C99.5815 80.8409 99.5963 80.7578 99.6493 80.6785C99.7017 80.5992 99.794 80.5539 99.9238 80.5407C99.9882 80.535 100.048 80.5388 100.103 80.5501C100.157 80.5615 100.21 80.5898 100.257 80.6313C100.267 80.6407 100.274 80.6521 100.28 80.6653C100.286 80.6785 100.282 80.6937 100.274 80.7125C100.259 80.7409 100.234 80.7559 100.202 80.7559C100.18 80.7559 100.157 80.7522 100.135 80.7465C100.112 80.7371 100.091 80.7277 100.073 80.7182C100.059 80.7106 100.048 80.705 100.035 80.6993C99.9933 80.6842 99.9614 80.6861 99.9392 80.705C99.9164 80.7257 99.905 80.7559 99.905 80.7994C99.909 80.873 99.9392 80.9523 99.9956 81.0373C100.052 81.1223 100.11 81.1997 100.166 81.2695C100.189 81.2941 100.21 81.3186 100.225 81.3413C100.24 81.3564 100.283 81.3545 100.351 81.3338C100.419 81.313 100.543 81.2545 100.726 81.1582C100.908 81.0618 100.999 81.0317 100.999 81.0637V81.0656ZM100.028 82.0456C100.069 82.0418 100.097 82.0192 100.11 81.9758C100.123 81.9323 100.127 81.8851 100.125 81.8322C100.121 81.7794 100.118 81.7416 100.116 81.7152C100.11 81.7001 100.101 81.6887 100.086 81.685C100.071 81.6812 100.058 81.6812 100.045 81.6869C99.9973 81.7246 99.9614 81.7718 99.9392 81.8303C99.9164 81.8889 99.9181 81.9399 99.9449 81.9833C99.954 81.9984 99.9654 82.0135 99.9785 82.0249C99.9916 82.0362 100.01 82.0437 100.029 82.0475L100.028 82.0456Z" fill="black"/>
<path d="M102.442 81.2076C102.521 81.1301 102.557 81.1113 102.546 81.149C102.534 81.1868 102.491 81.2566 102.414 81.3586C102.337 81.4606 102.241 81.5682 102.128 81.6872C102.015 81.8061 101.893 81.9062 101.765 81.9931C101.637 82.08 101.517 82.1272 101.401 82.1328C101.26 82.1328 101.149 82.0913 101.065 82.0082C100.98 81.9251 100.92 81.8137 100.884 81.6777C100.848 81.5399 100.833 81.3926 100.839 81.2321C100.846 81.0528 100.852 80.8753 100.857 80.6958C100.861 80.6052 100.863 80.5184 100.867 80.4315C100.875 80.288 100.88 80.1445 100.882 80.001C100.886 79.9557 100.878 79.9179 100.859 79.8877C100.843 79.8575 100.811 79.8405 100.765 79.8367C100.715 79.8329 100.651 79.8329 100.573 79.8329H100.402C100.336 79.8254 100.291 79.8084 100.269 79.7801C100.246 79.7517 100.263 79.7234 100.321 79.6932C100.363 79.6781 100.41 79.6686 100.468 79.6668C100.524 79.6668 100.581 79.6668 100.635 79.6686C100.67 79.6724 100.701 79.6724 100.726 79.6724C100.811 79.6724 100.863 79.6592 100.882 79.6328C100.901 79.6064 100.912 79.5535 100.916 79.4723C100.921 79.3873 100.925 79.3024 100.929 79.2174C100.933 79.1721 100.935 79.1268 100.941 79.0833C100.941 79.0172 100.957 78.9568 100.993 78.9021C101.031 78.851 101.078 78.8322 101.136 78.8435C101.187 78.8567 101.215 78.8888 101.221 78.9398C101.224 79.0248 101.227 79.1097 101.227 79.1947C101.23 79.2419 101.23 79.291 101.227 79.3382C101.227 79.3892 101.227 79.4421 101.23 79.4968C101.227 79.5724 101.236 79.6196 101.257 79.6404C101.277 79.6592 101.326 79.6705 101.407 79.6705H101.793C101.851 79.6705 102.023 79.6668 102.309 79.6592C102.595 79.6517 102.749 79.6743 102.772 79.7291C102.794 79.7838 102.614 79.816 102.228 79.8235C101.994 79.8367 101.814 79.8424 101.687 79.8424C101.603 79.8386 101.526 79.8386 101.458 79.8386C101.343 79.8386 101.273 79.8594 101.247 79.899C101.221 79.9387 101.208 80.0199 101.211 80.1388C101.208 80.2427 101.204 80.3673 101.196 80.5127C101.178 80.8129 101.168 81.1188 101.168 81.4323C101.176 81.6476 101.214 81.7873 101.283 81.8496C101.352 81.9138 101.443 81.9251 101.554 81.8854C101.665 81.8458 101.785 81.774 101.915 81.6721C102.045 81.5701 102.173 81.4606 102.301 81.3416C102.329 81.3058 102.361 81.2718 102.401 81.2397C102.414 81.2284 102.426 81.217 102.439 81.2076H102.442Z" fill="black"/>
<path d="M104.87 81.1351C104.831 81.2579 104.752 81.3976 104.633 81.5543C104.515 81.711 104.368 81.813 104.191 81.8583C104.014 81.9036 103.861 81.898 103.733 81.8394C103.606 81.7828 103.534 81.628 103.521 81.3787C103.374 81.6638 103.235 81.8451 103.103 81.9244C102.971 82.0037 102.832 82.0339 102.689 82.0151C102.527 81.9886 102.417 81.9263 102.359 81.8262C102.303 81.7261 102.282 81.6109 102.301 81.4788C102.32 81.3466 102.359 81.222 102.42 81.1011C102.466 81.0105 102.532 80.9274 102.617 80.85C102.702 80.7726 102.791 80.7121 102.883 80.6687C102.997 80.6102 103.112 80.5837 103.227 80.5856C103.344 80.5894 103.466 80.6272 103.598 80.7008C103.602 80.7046 103.602 80.7008 103.602 80.6914C103.602 80.6781 103.606 80.6612 103.611 80.6423C103.616 80.6234 103.628 80.6064 103.645 80.5951C103.688 80.563 103.739 80.5479 103.799 80.5479C103.86 80.5479 103.905 80.5781 103.937 80.6366C103.942 80.714 103.935 80.8123 103.912 80.9312C103.865 81.1917 103.865 81.3806 103.912 81.4957C103.959 81.6109 104.044 81.6638 104.164 81.6562C104.285 81.6487 104.441 81.5279 104.635 81.2975C104.829 81.0671 104.904 81.0105 104.864 81.1332L104.87 81.1351ZM102.734 81.7488C102.8 81.796 102.877 81.7903 102.964 81.7299C103.05 81.6695 103.133 81.5826 103.212 81.4712C103.291 81.3598 103.359 81.2484 103.414 81.1351C103.468 81.0237 103.498 80.9407 103.504 80.8859C103.342 80.799 103.202 80.7839 103.088 80.8405C102.971 80.8972 102.879 80.9916 102.811 81.1219C102.743 81.2522 102.702 81.3787 102.689 81.5015C102.675 81.6241 102.693 81.7072 102.736 81.7488H102.734Z" fill="black"/>
<path d="M107.658 81.2827C107.714 81.0995 107.756 81.0108 107.782 81.0183C107.806 81.0259 107.806 81.0806 107.782 81.1807C107.757 81.2808 107.726 81.3846 107.686 81.4923C107.648 81.5999 107.573 81.6962 107.462 81.7812C107.372 81.851 107.268 81.8963 107.147 81.9153C106.973 81.9341 106.83 81.9153 106.72 81.8567C106.611 81.8001 106.525 81.7189 106.464 81.615C106.404 81.5111 106.361 81.3979 106.336 81.277C106.286 81.4111 106.222 81.5433 106.143 81.6754C106.063 81.8076 105.966 81.9115 105.849 81.9926C105.73 82.0719 105.589 82.1022 105.426 82.0833C105.252 82.055 105.119 81.9851 105.025 81.8737C104.929 81.7642 104.859 81.6358 104.814 81.4885C104.769 81.3412 104.74 81.1996 104.727 81.0618C104.703 80.8351 104.684 80.5369 104.671 80.1686C104.658 79.8004 104.661 79.4095 104.682 78.9998C104.703 78.5901 104.752 78.2067 104.827 77.8537C104.902 77.5006 105.017 77.2267 105.171 77.0323C105.254 76.9398 105.354 76.8926 105.471 76.8906C105.587 76.8906 105.689 76.9322 105.778 77.021C105.892 77.1569 105.958 77.3061 105.975 77.4722C106.009 77.7385 105.997 78.0255 105.938 78.3351C105.877 78.6448 105.795 78.9507 105.685 79.251C105.576 79.5531 105.463 79.8269 105.346 80.0742C105.23 80.3216 105.13 80.5198 105.047 80.6671C105.051 80.771 105.062 80.8994 105.085 81.0523C105.107 81.2034 105.143 81.3526 105.192 81.4979C105.241 81.6433 105.309 81.7585 105.394 81.8473C105.493 81.9303 105.6 81.9303 105.715 81.8491C105.83 81.7679 105.939 81.6471 106.043 81.4847C106.147 81.3242 106.229 81.1637 106.29 81.007C106.267 80.8087 106.25 80.5482 106.238 80.2253C106.228 79.9024 106.233 79.5644 106.254 79.2075C106.274 78.8506 106.32 78.5202 106.387 78.2143C106.455 77.9084 106.557 77.6705 106.69 77.5006C106.766 77.4213 106.854 77.3797 106.955 77.3778C107.057 77.3778 107.147 77.4137 107.229 77.4911C107.332 77.6082 107.391 77.7385 107.407 77.8839C107.445 78.2011 107.413 78.541 107.313 78.9073C107.214 79.2736 107.089 79.6173 106.946 79.9383C106.801 80.2593 106.681 80.5066 106.581 80.6785C106.585 80.771 106.596 80.8843 106.615 81.0202C106.634 81.1562 106.666 81.2846 106.711 81.4092C106.754 81.5338 106.815 81.6358 106.892 81.7132C107.052 81.8189 107.204 81.8189 107.353 81.7132C107.502 81.6074 107.603 81.4639 107.662 81.2808L107.658 81.2827ZM105.105 79.0678C105.096 79.1527 105.088 79.2793 105.081 79.4473C105.074 79.6154 105.066 79.7872 105.059 79.9666C105.049 80.1573 105.042 80.3102 105.034 80.4217C105.113 80.2801 105.207 80.078 105.313 79.8118C105.418 79.5455 105.514 79.2321 105.603 78.8714C105.689 78.5107 105.746 78.1199 105.77 77.6969C105.755 77.4515 105.715 77.2853 105.655 77.1966C105.595 77.1078 105.529 77.1021 105.457 77.1739C105.386 77.2475 105.329 77.3986 105.286 77.6309C105.22 78.0142 105.17 78.3994 105.134 78.7846C105.124 78.8771 105.113 78.9715 105.104 79.0678H105.105ZM106.63 79.283C106.625 79.3567 106.617 79.4662 106.609 79.6135C106.602 79.7607 106.594 79.9099 106.587 80.0629C106.581 80.2328 106.576 80.3669 106.57 80.4651C106.639 80.3405 106.72 80.1611 106.815 79.9288C106.909 79.6966 106.995 79.4228 107.072 79.1074C107.151 78.794 107.2 78.4522 107.223 78.0859C107.21 77.8687 107.176 77.7215 107.121 77.6441C107.067 77.5666 107.008 77.561 106.945 77.6252C106.88 77.6894 106.83 77.8234 106.792 78.0274C106.732 78.3597 106.687 78.6958 106.658 79.0338C106.649 79.1169 106.639 79.1999 106.63 79.2849V79.283Z" fill="black"/>
<path d="M110.148 81.1351C110.108 81.2579 110.03 81.3976 109.911 81.5543C109.792 81.711 109.645 81.813 109.469 81.8583C109.291 81.9036 109.139 81.898 109.011 81.8394C108.883 81.7828 108.812 81.628 108.798 81.3787C108.652 81.6638 108.512 81.8451 108.381 81.9244C108.249 82.0037 108.109 82.0339 107.966 82.0151C107.805 81.9886 107.695 81.9263 107.637 81.8262C107.58 81.7261 107.56 81.6109 107.579 81.4788C107.597 81.3466 107.637 81.222 107.697 81.1011C107.744 81.0105 107.81 80.9274 107.895 80.85C107.98 80.7726 108.068 80.7121 108.16 80.6687C108.275 80.6102 108.39 80.5837 108.505 80.5856C108.622 80.5894 108.744 80.6272 108.876 80.7008C108.88 80.7046 108.88 80.7008 108.88 80.6914C108.88 80.6781 108.883 80.6612 108.889 80.6423C108.894 80.6234 108.906 80.6064 108.923 80.5951C108.966 80.563 109.017 80.5479 109.077 80.5479C109.137 80.5479 109.183 80.5781 109.214 80.6366C109.22 80.714 109.212 80.8123 109.19 80.9312C109.143 81.1917 109.143 81.3806 109.19 81.4957C109.237 81.6109 109.322 81.6638 109.442 81.6562C109.562 81.6487 109.719 81.5279 109.913 81.2975C110.106 81.0671 110.182 81.0105 110.142 81.1332L110.148 81.1351ZM108.01 81.7488C108.076 81.796 108.153 81.7903 108.239 81.7299C108.326 81.6695 108.408 81.5826 108.488 81.4712C108.567 81.3598 108.635 81.2484 108.689 81.1351C108.744 81.0237 108.774 80.9407 108.779 80.8859C108.618 80.799 108.479 80.7839 108.363 80.8405C108.247 80.8972 108.154 80.9916 108.087 81.1219C108.019 81.2522 107.978 81.3787 107.965 81.5015C107.951 81.6241 107.968 81.7072 108.011 81.7488H108.01Z" fill="black"/>
<path d="M111.586 81.2076C111.665 81.1301 111.701 81.1113 111.689 81.149C111.678 81.1868 111.635 81.2566 111.558 81.3586C111.48 81.4606 111.385 81.5682 111.271 81.6872C111.158 81.8061 111.036 81.9062 110.908 81.9931C110.78 82.08 110.66 82.1272 110.545 82.1328C110.404 82.1328 110.293 82.0913 110.208 82.0082C110.124 81.9251 110.063 81.8137 110.027 81.6777C109.991 81.5399 109.977 81.3926 109.982 81.2321C109.99 81.0528 109.995 80.8753 110.001 80.6958C110.005 80.6052 110.007 80.5184 110.01 80.4315C110.018 80.288 110.024 80.1445 110.026 80.001C110.03 79.9557 110.022 79.9179 110.003 79.8877C109.986 79.8575 109.954 79.8405 109.909 79.8367C109.858 79.8329 109.794 79.8329 109.717 79.8329H109.545C109.48 79.8254 109.434 79.8084 109.412 79.7801C109.389 79.7517 109.406 79.7234 109.464 79.6932C109.506 79.6781 109.553 79.6686 109.611 79.6668C109.668 79.6668 109.724 79.6668 109.779 79.6686C109.813 79.6724 109.845 79.6724 109.869 79.6724C109.954 79.6724 110.007 79.6592 110.026 79.6328C110.044 79.6064 110.056 79.5535 110.059 79.4723C110.065 79.3873 110.069 79.3024 110.073 79.2174C110.076 79.1721 110.078 79.1268 110.084 79.0833C110.084 79.0172 110.101 78.9568 110.137 78.9021C110.174 78.851 110.221 78.8322 110.28 78.8435C110.33 78.8567 110.359 78.8888 110.364 78.9398C110.368 79.0248 110.37 79.1097 110.37 79.1947C110.374 79.2419 110.374 79.291 110.37 79.3382C110.37 79.3892 110.37 79.4421 110.374 79.4968C110.37 79.5724 110.379 79.6196 110.4 79.6404C110.421 79.6592 110.47 79.6705 110.551 79.6705H110.936C110.995 79.6705 111.166 79.6668 111.452 79.6592C111.738 79.6517 111.893 79.6743 111.915 79.7291C111.938 79.7838 111.757 79.816 111.372 79.8235C111.138 79.8367 110.957 79.8424 110.831 79.8424C110.746 79.8386 110.669 79.8386 110.601 79.8386C110.486 79.8386 110.417 79.8594 110.391 79.899C110.364 79.9387 110.351 80.0199 110.355 80.1388C110.351 80.2427 110.347 80.3673 110.34 80.5127C110.321 80.8129 110.311 81.1188 110.311 81.4323C110.319 81.6476 110.356 81.7873 110.427 81.8496C110.496 81.9138 110.587 81.9251 110.698 81.8854C110.809 81.8458 110.929 81.774 111.059 81.6721C111.189 81.5701 111.317 81.4606 111.444 81.3416C111.473 81.3058 111.505 81.2718 111.545 81.2397C111.558 81.2284 111.569 81.217 111.582 81.2076H111.586Z" fill="black"/>
<path d="M112.683 81.372C112.638 81.4645 112.563 81.5684 112.454 81.6817C112.345 81.7949 112.224 81.8667 112.087 81.8969C111.949 81.9272 111.819 81.8799 111.695 81.7553C111.648 81.7005 111.613 81.6364 111.59 81.5646C111.567 81.4928 111.56 81.4211 111.565 81.3512V81.2795C111.565 81.2059 111.569 81.119 111.574 81.0227C111.58 80.9245 111.596 80.8376 111.618 80.7583C111.641 80.679 111.676 80.6337 111.723 80.6167C111.861 80.5827 111.936 80.6299 111.948 80.7602C111.948 80.8017 111.948 80.8452 111.944 80.8867C111.94 80.9094 111.94 80.9283 111.94 80.9472C111.936 81.0076 111.934 81.0699 111.93 81.1303C111.93 81.1775 111.929 81.2266 111.925 81.2738C111.921 81.4834 111.968 81.6099 112.066 81.6496C112.162 81.6892 112.273 81.6477 112.397 81.5231C112.522 81.3984 112.603 81.2946 112.642 81.2115C112.679 81.1284 112.708 81.1115 112.724 81.1587C112.742 81.2059 112.728 81.2776 112.683 81.3701V81.372ZM111.919 80.1692C111.9 80.1843 111.877 80.1956 111.851 80.1994C111.825 80.2032 111.801 80.2013 111.78 80.1937C111.765 80.1805 111.753 80.1635 111.75 80.1428C111.746 80.122 111.744 80.0975 111.744 80.0672C111.744 80.0616 111.744 80.0559 111.748 80.0503C111.752 80.0238 111.757 79.9973 111.766 79.9709C111.795 79.9011 111.855 79.869 111.948 79.8747C111.979 79.8784 112.004 79.8916 112.023 79.9143C112.042 79.9369 112.045 79.9615 112.034 79.9898C112.011 80.0616 111.974 80.1201 111.919 80.1692Z" fill="black"/>
<path d="M114.473 80.6621C114.516 80.6281 114.565 80.6093 114.624 80.6093C114.656 80.6093 114.686 80.6187 114.714 80.6357C114.743 80.6527 114.759 80.6904 114.767 80.7452C114.77 80.7641 114.77 80.783 114.77 80.8019C114.774 80.8113 114.774 80.8208 114.774 80.8302C114.78 80.8755 114.784 80.9133 114.784 80.9453C114.784 80.9926 114.788 81.0265 114.793 81.0436C114.799 81.0605 114.814 81.0605 114.835 81.0417C114.855 81.0228 114.889 80.9775 114.938 80.9076C115.021 80.7792 115.122 80.6716 115.245 80.5828C115.356 80.5035 115.478 80.4695 115.612 80.4828C115.727 80.4941 115.802 80.5545 115.842 80.664C115.857 80.7188 115.866 80.7754 115.866 80.8302C115.866 80.8849 115.862 80.9416 115.855 80.9983C115.851 81.0568 115.847 81.1153 115.842 81.1776L115.83 81.2343C115.812 81.442 115.817 81.5817 115.849 81.6516C115.881 81.7215 115.93 81.746 115.994 81.7215C116.058 81.6969 116.147 81.5968 116.259 81.4193C116.37 81.2418 116.437 81.1304 116.459 81.0813C116.482 81.0322 116.496 81.036 116.51 81.087C116.523 81.138 116.486 81.2569 116.402 81.4401C116.32 81.6232 116.214 81.7649 116.09 81.8649C115.966 81.965 115.849 82.0009 115.742 81.9744C115.635 81.948 115.558 81.8725 115.51 81.7497C115.463 81.6251 115.45 81.4684 115.469 81.2796C115.469 81.2758 115.469 81.2683 115.473 81.2551C115.476 81.2229 115.48 81.1757 115.49 81.1134C115.497 81.0511 115.503 80.9869 115.506 80.9189C115.51 80.8528 115.506 80.7962 115.501 80.7528C115.495 80.7093 115.473 80.6943 115.441 80.7075C115.363 80.749 115.288 80.8321 115.216 80.9548C115.144 81.0776 115.077 81.206 115.019 81.34C114.959 81.4741 114.917 81.5836 114.893 81.6648C114.884 81.6912 114.874 81.7176 114.865 81.7479C114.851 81.7856 114.837 81.8234 114.822 81.8612C114.78 81.9707 114.707 82.0122 114.603 81.9877C114.545 81.9744 114.511 81.9386 114.502 81.88C114.498 81.8347 114.498 81.7932 114.498 81.7516C114.498 81.7252 114.498 81.7007 114.494 81.6799C114.488 81.4269 114.48 81.172 114.475 80.9133C114.447 80.9775 114.408 81.0473 114.356 81.1248C114.163 81.3664 114.012 81.5119 113.907 81.5572C113.799 81.6044 113.72 81.6327 113.668 81.6459C113.615 81.6591 113.581 81.6799 113.564 81.7082C113.549 81.7347 113.53 81.7573 113.508 81.78L113.502 81.7837C113.414 81.88 113.31 81.9424 113.187 81.9725C113.066 82.0028 112.952 81.9933 112.843 81.9443C112.734 81.8952 112.657 81.8007 112.608 81.6629C112.574 81.5383 112.57 81.4136 112.599 81.2909C112.623 81.1814 112.662 81.0795 112.717 80.9831C112.783 80.8547 112.87 80.766 112.977 80.7112C113.084 80.6584 113.205 80.6281 113.338 80.6225C113.538 80.6131 113.664 80.7075 113.715 80.9057C113.747 81.0209 113.754 81.1361 113.739 81.2551C113.735 81.2815 113.731 81.3098 113.726 81.3381C113.718 81.357 113.713 81.3759 113.711 81.3948C113.784 81.3985 113.878 81.357 113.993 81.2758C114.108 81.1927 114.215 81.0624 114.319 80.8831C114.383 80.7679 114.435 80.6924 114.479 80.6565L114.473 80.6621ZM113.109 81.8064C113.212 81.7592 113.284 81.678 113.323 81.5628C113.15 81.4533 113.037 81.2966 112.981 81.0927C112.926 81.1889 112.892 81.3004 112.883 81.4288C112.871 81.5572 112.884 81.6629 112.922 81.746C112.96 81.8291 113.022 81.8498 113.111 81.8083L113.109 81.8064ZM113.401 81.3363C113.428 81.2947 113.447 81.2456 113.453 81.1852C113.459 81.1267 113.457 81.0662 113.447 81.0077C113.436 80.9492 113.421 80.9019 113.401 80.8699C113.379 80.8359 113.359 80.8264 113.34 80.8396C113.299 80.8736 113.274 80.9246 113.271 80.9907C113.267 81.0568 113.276 81.121 113.303 81.1871C113.327 81.2532 113.361 81.3023 113.401 81.3381V81.3363Z" fill="black"/>
<g style="mix-blend-mode:color-dodge">
<ellipse cx="72.5" cy="59" rx="72.5" ry="59" fill="white"/>
</g>
</svg>
